<svg width="72" height="168" viewBox="0 0 72 168" fill="none" xmlns="http://www.w3.org/2000/svg">
<g opacity="0.6">
<circle r="1.71429" transform="matrix(1 0 0 -1 1.71429 49.7143)" fill="#CCCCCC"/>
<circle r="1.71429" transform="matrix(1 0 0 -1 1.71429 142.286)" fill="#CCCCCC"/>
<circle r="1.71429" transform="matrix(1 0 0 -1 1.71429 25.7143)" fill="#CCCCCC"/>
<circle r="1.71429" transform="matrix(1 0 0 -1 1.71429 118.286)" fill="#CCCCCC"/>
<circle r="1.71429" transform="matrix(1 0 0 -1 1.71429 73.7143)" fill="#CCCCCC"/>
<circle r="1.71429" transform="matrix(1 0 0 -1 1.71429 166.286)" fill="#CCCCCC"/>
<circle r="1.71429" transform="matrix(1 0 0 -1 1.71429 1.7143)" fill="#CCCCCC"/>
<circle r="1.71429" transform="matrix(1 0 0 -1 1.71429 94.2857)" fill="#CCCCCC"/>
<circle r="1.71429" transform="matrix(1 0 0 -1 15.4286 49.7143)" fill="#CCCCCC"/>
<circle r="1.71429" transform="matrix(1 0 0 -1 15.4286 142.286)" fill="#CCCCCC"/>
<circle r="1.71429" transform="matrix(1 0 0 -1 15.4286 25.7143)" fill="#CCCCCC"/>
<circle r="1.71429" transform="matrix(1 0 0 -1 15.4286 118.286)" fill="#CCCCCC"/>
<circle r="1.71429" transform="matrix(1 0 0 -1 15.4286 73.7143)" fill="#CCCCCC"/>
<circle r="1.71429" transform="matrix(1 0 0 -1 15.4286 166.286)" fill="#CCCCCC"/>
<circle r="1.71429" transform="matrix(1 0 0 -1 15.4286 1.7143)" fill="#CCCCCC"/>
<circle r="1.71429" transform="matrix(1 0 0 -1 15.4286 94.2857)" fill="#CCCCCC"/>
<circle r="1.71429" transform="matrix(1 0 0 -1 29.1429 49.7143)" fill="#CCCCCC"/>
<circle r="1.71429" transform="matrix(1 0 0 -1 29.1429 142.286)" fill="#CCCCCC"/>
<circle r="1.71429" transform="matrix(1 0 0 -1 29.1429 25.7143)" fill="#CCCCCC"/>
<circle r="1.71429" transform="matrix(1 0 0 -1 29.1429 118.286)" fill="#CCCCCC"/>
<circle r="1.71429" transform="matrix(1 0 0 -1 29.1429 73.7143)" fill="#CCCCCC"/>
<circle r="1.71429" transform="matrix(1 0 0 -1 29.1429 166.286)" fill="#CCCCCC"/>
<circle r="1.71429" transform="matrix(1 0 0 -1 29.1429 1.7143)" fill="#CCCCCC"/>
<circle r="1.71429" transform="matrix(1 0 0 -1 29.1429 94.2857)" fill="#CCCCCC"/>
<circle r="1.71429" transform="matrix(1 0 0 -1 42.8572 49.7143)" fill="#CCCCCC"/>
<circle r="1.71429" transform="matrix(1 0 0 -1 42.8572 142.286)" fill="#CCCCCC"/>
<circle r="1.71429" transform="matrix(1 0 0 -1 42.8572 25.7143)" fill="#CCCCCC"/>
<circle r="1.71429" transform="matrix(1 0 0 -1 42.8572 118.286)" fill="#CCCCCC"/>
<circle r="1.71429" transform="matrix(1 0 0 -1 42.8572 73.7143)" fill="#CCCCCC"/>
<circle r="1.71429" transform="matrix(1 0 0 -1 42.8572 166.286)" fill="#CCCCCC"/>
<circle r="1.71429" transform="matrix(1 0 0 -1 42.8572 1.7143)" fill="#CCCCCC"/>
<circle r="1.71429" transform="matrix(1 0 0 -1 42.8572 94.2857)" fill="#CCCCCC"/>
<circle r="1.71429" transform="matrix(1 0 0 -1 56.5714 49.7143)" fill="#CCCCCC"/>
<circle r="1.71429" transform="matrix(1 0 0 -1 56.5714 142.286)" fill="#CCCCCC"/>
<circle r="1.71429" transform="matrix(1 0 0 -1 56.5714 25.7143)" fill="#CCCCCC"/>
<circle r="1.71429" transform="matrix(1 0 0 -1 56.5714 118.286)" fill="#CCCCCC"/>
<circle r="1.71429" transform="matrix(1 0 0 -1 56.5714 73.7143)" fill="#CCCCCC"/>
<circle r="1.71429" transform="matrix(1 0 0 -1 56.5714 166.286)" fill="#CCCCCC"/>
<circle r="1.71429" transform="matrix(1 0 0 -1 56.5714 1.7143)" fill="#CCCCCC"/>
<circle r="1.71429" transform="matrix(1 0 0 -1 56.5714 94.2857)" fill="#CCCCCC"/>
<circle r="1.71429" transform="matrix(1 0 0 -1 70.2857 49.7143)" fill="#CCCCCC"/>
<circle r="1.71429" transform="matrix(1 0 0 -1 70.2857 142.286)" fill="#CCCCCC"/>
<circle r="1.71429" transform="matrix(1 0 0 -1 70.2857 25.7143)" fill="#CCCCCC"/>
<circle r="1.71429" transform="matrix(1 0 0 -1 70.2857 118.286)" fill="#CCCCCC"/>
<circle r="1.71429" transform="matrix(1 0 0 -1 70.2857 1.7143)" fill="#CCCCCC"/>
<circle r="1.71429" transform="matrix(1 0 0 -1 70.2857 94.2857)" fill="#CCCCCC"/>
<circle r="1.71429" transform="matrix(1 0 0 -1 70.2857 73.7143)" fill="#CCCCCC"/>
<circle r="1.71429" transform="matrix(1 0 0 -1 70.2857 166.286)" fill="#CCCCCC"/>
</g>
</svg>
