<svg width="72" height="168" viewBox="0 0 72 168" fill="none" xmlns="http://www.w3.org/2000/svg">
<path d="M3.42857 49.7143C3.42857 48.7675 2.66106 48 1.71429 48C0.767512 48 0 48.7675 0 49.7143C0 50.6611 0.767512 51.4286 1.71429 51.4286C2.66106 51.4286 3.42857 50.6611 3.42857 49.7143Z" fill="#CCCCCC"/>
<path d="M3.42857 142.286C3.42857 141.339 2.66106 140.571 1.71429 140.571C0.767512 140.571 0 141.339 0 142.286C0 143.232 0.767512 144 1.71429 144C2.66106 144 3.42857 143.232 3.42857 142.286Z" fill="#CCCCCC"/>
<path d="M3.42857 25.7143C3.42857 24.7675 2.66106 24 1.71429 24C0.767512 24 0 24.7675 0 25.7143C0 26.6611 0.767512 27.4286 1.71429 27.4286C2.66106 27.4286 3.42857 26.6611 3.42857 25.7143Z" fill="#CCCCCC"/>
<path d="M3.42857 118.286C3.42857 117.339 2.66106 116.571 1.71429 116.571C0.767512 116.571 0 117.339 0 118.286C0 119.232 0.767512 120 1.71429 120C2.66106 120 3.42857 119.232 3.42857 118.286Z" fill="#CCCCCC"/>
<path d="M3.42857 73.7143C3.42857 72.7675 2.66106 72 1.71429 72C0.767512 72 0 72.7675 0 73.7143C0 74.6611 0.767512 75.4286 1.71429 75.4286C2.66106 75.4286 3.42857 74.6611 3.42857 73.7143Z" fill="#CCCCCC"/>
<path d="M3.42857 166.286C3.42857 165.339 2.66106 164.571 1.71429 164.571C0.767512 164.571 0 165.339 0 166.286C0 167.232 0.767512 168 1.71429 168C2.66106 168 3.42857 167.232 3.42857 166.286Z" fill="#CCCCCC"/>
<path d="M3.42857 1.7143C3.42857 0.767529 2.66106 1.74046e-05 1.71429 1.74046e-05C0.767512 1.74046e-05 0 0.767529 0 1.7143C0 2.66108 0.767512 3.42859 1.71429 3.42859C2.66106 3.42859 3.42857 2.66108 3.42857 1.7143Z" fill="#CCCCCC"/>
<path d="M3.42857 94.2857C3.42857 93.3389 2.66106 92.5714 1.71429 92.5714C0.767512 92.5714 0 93.3389 0 94.2857C0 95.2325 0.767512 96 1.71429 96C2.66106 96 3.42857 95.2325 3.42857 94.2857Z" fill="#CCCCCC"/>
<path d="M17.1429 49.7143C17.1429 48.7675 16.3754 48 15.4286 48C14.4819 48 13.7144 48.7675 13.7144 49.7143C13.7144 50.6611 14.4819 51.4286 15.4286 51.4286C16.3754 51.4286 17.1429 50.6611 17.1429 49.7143Z" fill="#CCCCCC"/>
<path d="M17.1429 142.286C17.1429 141.339 16.3754 140.571 15.4286 140.571C14.4819 140.571 13.7144 141.339 13.7144 142.286C13.7144 143.232 14.4819 144 15.4286 144C16.3754 144 17.1429 143.232 17.1429 142.286Z" fill="#CCCCCC"/>
<path d="M17.1429 25.7143C17.1429 24.7675 16.3754 24 15.4286 24C14.4819 24 13.7144 24.7675 13.7144 25.7143C13.7144 26.6611 14.4819 27.4286 15.4286 27.4286C16.3754 27.4286 17.1429 26.6611 17.1429 25.7143Z" fill="#CCCCCC"/>
<path d="M17.1429 118.286C17.1429 117.339 16.3754 116.571 15.4286 116.571C14.4819 116.571 13.7144 117.339 13.7144 118.286C13.7144 119.232 14.4819 120 15.4286 120C16.3754 120 17.1429 119.232 17.1429 118.286Z" fill="#CCCCCC"/>
<path d="M17.1429 73.7143C17.1429 72.7675 16.3754 72 15.4286 72C14.4819 72 13.7144 72.7675 13.7144 73.7143C13.7144 74.6611 14.4819 75.4286 15.4286 75.4286C16.3754 75.4286 17.1429 74.6611 17.1429 73.7143Z" fill="#CCCCCC"/>
<path d="M17.1429 166.286C17.1429 165.339 16.3754 164.571 15.4286 164.571C14.4819 164.571 13.7144 165.339 13.7144 166.286C13.7144 167.232 14.4819 168 15.4286 168C16.3754 168 17.1429 167.232 17.1429 166.286Z" fill="#CCCCCC"/>
<path d="M17.1429 1.7143C17.1429 0.767529 16.3754 1.74046e-05 15.4286 1.74046e-05C14.4819 1.74046e-05 13.7144 0.767529 13.7144 1.7143C13.7144 2.66108 14.4819 3.42859 15.4286 3.42859C16.3754 3.42859 17.1429 2.66108 17.1429 1.7143Z" fill="#CCCCCC"/>
<path d="M17.1429 94.2857C17.1429 93.3389 16.3754 92.5714 15.4286 92.5714C14.4819 92.5714 13.7144 93.3389 13.7144 94.2857C13.7144 95.2325 14.4819 96 15.4286 96C16.3754 96 17.1429 95.2325 17.1429 94.2857Z" fill="#CCCCCC"/>
<path d="M30.857 49.7143C30.857 48.7675 30.0895 48 29.1428 48C28.196 48 27.4285 48.7675 27.4285 49.7143C27.4285 50.6611 28.196 51.4286 29.1428 51.4286C30.0895 51.4286 30.857 50.6611 30.857 49.7143Z" fill="#CCCCCC"/>
<path d="M30.857 142.286C30.857 141.339 30.0895 140.571 29.1428 140.571C28.196 140.571 27.4285 141.339 27.4285 142.286C27.4285 143.232 28.196 144 29.1428 144C30.0895 144 30.857 143.232 30.857 142.286Z" fill="#CCCCCC"/>
<path d="M30.857 25.7143C30.857 24.7675 30.0895 24 29.1428 24C28.196 24 27.4285 24.7675 27.4285 25.7143C27.4285 26.6611 28.196 27.4286 29.1428 27.4286C30.0895 27.4286 30.857 26.6611 30.857 25.7143Z" fill="#CCCCCC"/>
<path d="M30.857 118.286C30.857 117.339 30.0895 116.571 29.1428 116.571C28.196 116.571 27.4285 117.339 27.4285 118.286C27.4285 119.232 28.196 120 29.1428 120C30.0895 120 30.857 119.232 30.857 118.286Z" fill="#CCCCCC"/>
<path d="M30.857 73.7143C30.857 72.7675 30.0895 72 29.1428 72C28.196 72 27.4285 72.7675 27.4285 73.7143C27.4285 74.6611 28.196 75.4286 29.1428 75.4286C30.0895 75.4286 30.857 74.6611 30.857 73.7143Z" fill="#CCCCCC"/>
<path d="M30.857 166.286C30.857 165.339 30.0895 164.571 29.1428 164.571C28.196 164.571 27.4285 165.339 27.4285 166.286C27.4285 167.232 28.196 168 29.1428 168C30.0895 168 30.857 167.232 30.857 166.286Z" fill="#CCCCCC"/>
<path d="M30.857 1.7143C30.857 0.767529 30.0895 1.74046e-05 29.1428 1.74046e-05C28.196 1.74046e-05 27.4285 0.767529 27.4285 1.7143C27.4285 2.66108 28.196 3.42859 29.1428 3.42859C30.0895 3.42859 30.857 2.66108 30.857 1.7143Z" fill="#CCCCCC"/>
<path d="M30.857 94.2857C30.857 93.3389 30.0895 92.5714 29.1428 92.5714C28.196 92.5714 27.4285 93.3389 27.4285 94.2857C27.4285 95.2325 28.196 96 29.1428 96C30.0895 96 30.857 95.2325 30.857 94.2857Z" fill="#CCCCCC"/>
<path d="M44.5714 49.7143C44.5714 48.7675 43.8039 48 42.8571 48C41.9103 48 41.1428 48.7675 41.1428 49.7143C41.1428 50.6611 41.9103 51.4286 42.8571 51.4286C43.8039 51.4286 44.5714 50.6611 44.5714 49.7143Z" fill="#CCCCCC"/>
<path d="M44.5714 142.286C44.5714 141.339 43.8039 140.571 42.8571 140.571C41.9103 140.571 41.1428 141.339 41.1428 142.286C41.1428 143.232 41.9103 144 42.8571 144C43.8039 144 44.5714 143.232 44.5714 142.286Z" fill="#CCCCCC"/>
<path d="M44.5714 25.7143C44.5714 24.7675 43.8039 24 42.8571 24C41.9103 24 41.1428 24.7675 41.1428 25.7143C41.1428 26.6611 41.9103 27.4286 42.8571 27.4286C43.8039 27.4286 44.5714 26.6611 44.5714 25.7143Z" fill="#CCCCCC"/>
<path d="M44.5714 118.286C44.5714 117.339 43.8039 116.571 42.8571 116.571C41.9103 116.571 41.1428 117.339 41.1428 118.286C41.1428 119.232 41.9103 120 42.8571 120C43.8039 120 44.5714 119.232 44.5714 118.286Z" fill="#CCCCCC"/>
<path d="M44.5714 73.7143C44.5714 72.7675 43.8039 72 42.8571 72C41.9103 72 41.1428 72.7675 41.1428 73.7143C41.1428 74.6611 41.9103 75.4286 42.8571 75.4286C43.8039 75.4286 44.5714 74.6611 44.5714 73.7143Z" fill="#CCCCCC"/>
<path d="M44.5714 166.286C44.5714 165.339 43.8039 164.571 42.8571 164.571C41.9103 164.571 41.1428 165.339 41.1428 166.286C41.1428 167.232 41.9103 168 42.8571 168C43.8039 168 44.5714 167.232 44.5714 166.286Z" fill="#CCCCCC"/>
<path d="M44.5714 1.7143C44.5714 0.767529 43.8039 1.74046e-05 42.8571 1.74046e-05C41.9103 1.74046e-05 41.1428 0.767529 41.1428 1.7143C41.1428 2.66108 41.9103 3.42859 42.8571 3.42859C43.8039 3.42859 44.5714 2.66108 44.5714 1.7143Z" fill="#CCCCCC"/>
<path d="M44.5714 94.2857C44.5714 93.3389 43.8039 92.5714 42.8571 92.5714C41.9103 92.5714 41.1428 93.3389 41.1428 94.2857C41.1428 95.2325 41.9103 96 42.8571 96C43.8039 96 44.5714 95.2325 44.5714 94.2857Z" fill="#CCCCCC"/>
<path d="M58.2857 49.7143C58.2857 48.7675 57.5182 48 56.5715 48C55.6247 48 54.8572 48.7675 54.8572 49.7143C54.8572 50.6611 55.6247 51.4286 56.5715 51.4286C57.5182 51.4286 58.2857 50.6611 58.2857 49.7143Z" fill="#CCCCCC"/>
<path d="M58.2857 142.286C58.2857 141.339 57.5182 140.571 56.5715 140.571C55.6247 140.571 54.8572 141.339 54.8572 142.286C54.8572 143.232 55.6247 144 56.5715 144C57.5182 144 58.2857 143.232 58.2857 142.286Z" fill="#CCCCCC"/>
<path d="M58.2857 25.7143C58.2857 24.7675 57.5182 24 56.5715 24C55.6247 24 54.8572 24.7675 54.8572 25.7143C54.8572 26.6611 55.6247 27.4286 56.5715 27.4286C57.5182 27.4286 58.2857 26.6611 58.2857 25.7143Z" fill="#CCCCCC"/>
<path d="M58.2857 118.286C58.2857 117.339 57.5182 116.571 56.5715 116.571C55.6247 116.571 54.8572 117.339 54.8572 118.286C54.8572 119.232 55.6247 120 56.5715 120C57.5182 120 58.2857 119.232 58.2857 118.286Z" fill="#CCCCCC"/>
<path d="M58.2857 73.7143C58.2857 72.7675 57.5182 72 56.5715 72C55.6247 72 54.8572 72.7675 54.8572 73.7143C54.8572 74.6611 55.6247 75.4286 56.5715 75.4286C57.5182 75.4286 58.2857 74.6611 58.2857 73.7143Z" fill="#CCCCCC"/>
<path d="M58.2857 166.286C58.2857 165.339 57.5182 164.571 56.5715 164.571C55.6247 164.571 54.8572 165.339 54.8572 166.286C54.8572 167.232 55.6247 168 56.5715 168C57.5182 168 58.2857 167.232 58.2857 166.286Z" fill="#CCCCCC"/>
<path d="M58.2857 1.7143C58.2857 0.767529 57.5182 1.74046e-05 56.5715 1.74046e-05C55.6247 1.74046e-05 54.8572 0.767529 54.8572 1.7143C54.8572 2.66108 55.6247 3.42859 56.5715 3.42859C57.5182 3.42859 58.2857 2.66108 58.2857 1.7143Z" fill="#CCCCCC"/>
<path d="M58.2857 94.2857C58.2857 93.3389 57.5182 92.5714 56.5715 92.5714C55.6247 92.5714 54.8572 93.3389 54.8572 94.2857C54.8572 95.2325 55.6247 96 56.5715 96C57.5182 96 58.2857 95.2325 58.2857 94.2857Z" fill="#CCCCCC"/>
<path d="M72.0001 49.7143C72.0001 48.7675 71.2326 48 70.2858 48C69.339 48 68.5715 48.7675 68.5715 49.7143C68.5715 50.6611 69.339 51.4286 70.2858 51.4286C71.2326 51.4286 72.0001 50.6611 72.0001 49.7143Z" fill="#CCCCCC"/>
<path d="M72.0001 142.286C72.0001 141.339 71.2326 140.571 70.2858 140.571C69.339 140.571 68.5715 141.339 68.5715 142.286C68.5715 143.232 69.339 144 70.2858 144C71.2326 144 72.0001 143.232 72.0001 142.286Z" fill="#CCCCCC"/>
<path d="M72.0001 25.7143C72.0001 24.7675 71.2326 24 70.2858 24C69.339 24 68.5715 24.7675 68.5715 25.7143C68.5715 26.6611 69.339 27.4286 70.2858 27.4286C71.2326 27.4286 72.0001 26.6611 72.0001 25.7143Z" fill="#CCCCCC"/>
<path d="M72.0001 118.286C72.0001 117.339 71.2326 116.571 70.2858 116.571C69.339 116.571 68.5715 117.339 68.5715 118.286C68.5715 119.232 69.339 120 70.2858 120C71.2326 120 72.0001 119.232 72.0001 118.286Z" fill="#CCCCCC"/>
<path d="M72.0001 1.7143C72.0001 0.767529 71.2326 1.74046e-05 70.2858 1.74046e-05C69.339 1.74046e-05 68.5715 0.767529 68.5715 1.7143C68.5715 2.66108 69.339 3.42859 70.2858 3.42859C71.2326 3.42859 72.0001 2.66108 72.0001 1.7143Z" fill="#CCCCCC"/>
<path d="M72.0001 94.2857C72.0001 93.3389 71.2326 92.5714 70.2858 92.5714C69.339 92.5714 68.5715 93.3389 68.5715 94.2857C68.5715 95.2325 69.339 96 70.2858 96C71.2326 96 72.0001 95.2325 72.0001 94.2857Z" fill="#CCCCCC"/>
<path d="M72.0001 73.7143C72.0001 72.7675 71.2326 72 70.2858 72C69.339 72 68.5715 72.7675 68.5715 73.7143C68.5715 74.6611 69.339 75.4286 70.2858 75.4286C71.2326 75.4286 72.0001 74.6611 72.0001 73.7143Z" fill="#CCCCCC"/>
<path d="M72.0001 166.286C72.0001 165.339 71.2326 164.571 70.2858 164.571C69.339 164.571 68.5715 165.339 68.5715 166.286C68.5715 167.232 69.339 168 70.2858 168C71.2326 168 72.0001 167.232 72.0001 166.286Z" fill="#CCCCCC"/>
</svg>
