<svg width="18" height="17" viewBox="0 0 18 17" fill="none" xmlns="http://www.w3.org/2000/svg">
<path fill-rule="evenodd" clip-rule="evenodd" d="M8.99923 3.05176e-05C4.03002 3.05176e-05 6.10352e-05 3.90191 6.10352e-05 8.71542C6.10352e-05 12.5654 2.57859 15.8322 6.15495 16.9851C6.60524 17.0648 6.76933 16.7957 6.76933 16.5646C6.76933 16.3576 6.7616 15.8097 6.75718 15.0826C4.25379 15.6091 3.72559 13.9141 3.72559 13.9141C3.31619 12.9073 2.72612 12.6392 2.72612 12.6392C1.90896 12.0988 2.788 12.1095 2.788 12.1095C3.69134 12.1711 4.16649 13.0078 4.16649 13.0078C4.96928 14.3395 6.27318 13.9548 6.78591 13.7317C6.86768 13.1689 7.10028 12.7847 7.35719 12.567C5.35879 12.3465 3.25762 11.5991 3.25762 8.25959C3.25762 7.3078 3.60846 6.53043 4.18417 5.92105C4.09135 5.70062 3.7825 4.81462 4.27257 3.61459C4.27257 3.61459 5.02784 3.38025 6.74723 4.50752C7.46493 4.31438 8.23512 4.21808 9.00034 4.21433C9.765 4.21808 10.5346 4.31438 11.2534 4.50752C12.9717 3.38025 13.7259 3.61459 13.7259 3.61459C14.2171 4.81462 13.9082 5.70062 13.816 5.92105C14.3928 6.53043 14.7408 7.3078 14.7408 8.25959C14.7408 11.6077 12.6364 12.3444 10.6319 12.56C10.9545 12.8291 11.2424 13.3609 11.2424 14.1742C11.2424 15.3389 11.2313 16.2789 11.2313 16.5646C11.2313 16.7979 11.3938 17.0691 11.8502 16.9841C15.4237 15.829 18.0001 12.5648 18.0001 8.71542C18.0001 3.90191 13.9701 3.05176e-05 8.99923 3.05176e-05Z" fill="white"/>
</svg>
