<svg width="76" height="76" viewBox="0 0 76 76" fill="none" xmlns="http://www.w3.org/2000/svg">
<path d="M52.9897 54.1693C53.428 50.5245 53.2962 49.9927 56.0118 50.5809L56.7028 50.6427C58.792 50.7367 61.5237 50.3069 63.1558 49.5629C66.6108 47.9621 68.6596 45.2869 65.253 45.9907C57.4826 47.5915 56.9179 44.9619 56.9179 44.9619C65.1266 32.7947 68.5601 17.3506 65.5945 13.5715C57.5175 3.25749 43.5335 8.13514 43.2995 8.26407L43.2243 8.2775C41.6917 7.95519 39.9978 7.76717 38.035 7.74031C34.5182 7.68659 31.8509 8.66159 29.8236 10.1953C29.8236 10.1953 4.88032 -0.0703726 6.03916 23.1065C6.28653 28.0379 13.1105 60.441 21.2574 50.6373C24.2392 47.0543 27.1161 44.0272 27.1161 44.0272C28.5411 44.9754 30.2538 45.4588 32.0472 45.2843L32.187 45.1661C32.1457 45.6303 32.1646 46.098 32.2435 46.5574C30.1463 48.8995 30.7647 49.3105 26.5703 50.1726C22.3275 51.0456 24.8226 52.6007 26.4466 53.009C28.4201 53.5032 32.9856 54.2015 36.0722 49.8879L35.9486 50.3795C36.7713 51.0375 36.7149 55.1067 36.8358 58.0129C36.9568 60.919 37.1477 63.6345 37.7419 65.2327C38.3362 66.8308 39.0325 70.9537 44.5444 69.7987C49.1502 68.813 52.6724 67.3921 52.9951 54.1935" fill="black"/>
<path d="M51.5945 4.00191C49.0434 3.97168 46.8149 4.30452 45.1763 4.65495C44.357 4.83017 43.6875 5.0134 43.1949 5.16053C43.0843 5.19359 43.0137 5.22059 42.9209 5.25006C41.4205 4.98698 39.8756 4.76922 38.0888 4.74448H38.0834C34.7145 4.69395 31.9492 5.64367 29.6102 7.00379C28.0057 6.38253 23.2196 4.64828 17.2796 4.97094C13.7644 5.16189 9.91603 6.23334 7.07264 9.23677C4.22924 12.2402 2.72546 16.8905 3.04148 23.2139C3.12893 24.9582 3.62273 27.8065 4.44843 31.4928C5.27414 35.1791 6.43131 39.494 7.87887 43.4319C9.32642 47.3697 10.9133 50.9119 13.3907 53.317C14.6295 54.5195 16.3323 55.5333 18.3441 55.4446C19.8054 55.3802 21.0592 54.6237 22.1855 53.6593C22.7069 54.3178 23.2512 54.8575 23.7558 55.1339C24.4114 55.4931 25.0514 55.7317 25.7108 55.8975C26.9 56.1955 28.9293 56.5942 31.3123 56.1872C32.1215 56.049 32.9815 55.6215 33.8311 55.2445C33.8675 56.2438 33.9055 57.2334 33.947 58.2306C34.0706 61.1997 34.1336 63.9485 35.0325 66.3673C35.176 66.7534 35.5716 68.7864 37.1192 70.5804C38.6668 72.3745 41.7033 73.5035 45.171 72.7765H45.1764H45.1818C47.6236 72.2537 50.738 71.3096 52.8015 68.3738C54.8349 65.4808 55.7389 61.2997 55.9263 54.5967H55.9317C55.9479 54.4631 55.9239 54.5738 55.9422 54.4493C55.9432 54.4089 55.9516 54.3898 55.9527 54.3492H55.9473C56.0527 53.7115 55.9473 53.8491 56.0106 53.554L56.5797 53.6014L56.6482 53.6068C59.2547 53.7241 62.0919 53.3427 64.4575 52.2638L64.4629 52.2584H64.4735C66.5677 51.2877 68.1478 50.3042 69.3003 48.5666C69.5884 48.1323 69.9046 47.6146 69.9906 46.7181C70.0766 45.8216 69.5655 44.4185 68.7101 43.7689C66.9993 42.4697 65.9234 42.9667 64.7686 43.2054C62.4092 43.6917 62.0115 43.4518 61.1958 43.3634C64.4588 37.8235 67.0133 32.0197 68.3567 26.8215C69.1597 23.7145 69.6148 20.852 69.653 18.3477C69.6912 15.8453 69.4828 13.6273 67.9826 11.712C63.2933 5.72117 56.6968 4.06238 51.5945 4.00191ZM51.526 9.80028C55.5247 9.84767 59.9985 10.9192 63.414 15.2827H63.4194C63.4043 15.2634 63.8797 16.4066 63.8515 18.2582C63.8232 20.1098 63.4608 22.5977 62.7449 25.3679C61.3129 30.9084 58.4932 37.5982 54.5877 43.3897L53.8974 44.4114L54.1556 45.6174C54.1556 45.6174 54.4368 46.5664 54.9249 47.1868C55.0787 47.3823 55.4193 47.5118 55.6258 47.6977C55.2165 47.6354 54.8461 47.5227 54.3348 47.5555C53.3997 47.6154 51.9908 48.2601 51.3364 49.1934C50.0276 51.0599 50.3857 52.128 50.1719 53.9068L53.3283 54.286L50.1561 54.207C50.0004 60.5774 48.9935 63.7028 48.0535 65.0401C47.1135 66.3775 46.1495 66.6431 43.9697 67.1098C41.9318 67.5339 41.841 67.1789 41.5088 66.7938C41.1753 66.4072 40.9182 65.5684 40.4655 64.3502C40.1719 63.5602 39.8575 60.8543 39.7383 57.9883C39.6807 56.6044 39.6681 54.837 39.5538 53.2275C39.4967 52.4227 39.418 51.6608 39.2535 50.8997C39.089 50.1386 39.1191 49.2733 37.7622 48.1875L38.5474 50.5047L34.3687 48.5719C34.3787 48.5606 34.3849 48.5517 34.3951 48.5403L35.3278 47.4975L35.0907 46.123C35.0539 45.9083 35.045 45.6869 35.0643 45.47L35.6913 38.4498L31.149 42.289C30.285 42.2522 29.4283 42.1462 28.6934 41.6571L26.6647 40.3088L24.9837 42.0784C24.9837 42.0784 22.0467 45.1716 18.9818 48.8563H18.9765C18.2688 49.7083 18.0144 49.6547 18.086 49.6515C18.1575 49.6483 17.984 49.6969 17.4273 49.1565C16.3138 48.0756 14.6394 45.0191 13.3222 41.4359C12.005 37.8527 10.8913 33.7266 10.1079 30.2289C9.32439 26.7311 8.8693 23.6553 8.83264 22.9243C8.56725 17.614 9.76044 14.8264 11.283 13.2182C12.8055 11.61 14.9939 10.8946 17.5905 10.7535C22.7838 10.4714 28.6986 12.7864 28.6986 12.7864L30.232 13.4183L31.5547 12.4177C33.0848 11.2596 35.0289 10.4922 37.9992 10.5376H38.0046C39.8117 10.5623 41.3135 10.7351 42.6523 11.0168L43.2056 11.1327L44.3069 10.9378L44.5388 10.8114C44.6164 10.7855 44.7105 10.7545 44.855 10.7114C45.2064 10.6064 45.7325 10.4619 46.3884 10.3217C47.7001 10.0411 49.5268 9.77659 51.5261 9.80028L51.526 9.80028Z" fill="black"/>
<path d="M65.2502 45.9996C57.4795 47.6008 56.9148 44.9706 56.9148 44.9706C65.1239 32.8002 68.5575 17.3522 65.5944 13.5721C57.5172 3.25551 43.5325 8.13709 43.2986 8.26336L43.2233 8.2768C41.5152 7.93435 39.7786 7.75355 38.0365 7.73679C34.5195 7.68305 31.8522 8.6583 29.8248 10.1924C29.8248 10.1924 4.87776 -0.0758946 6.03934 23.1069C6.28671 28.0396 13.111 60.4509 21.2582 50.6447C24.2589 47.0393 27.136 44.0115 27.136 44.0115C28.561 44.9599 30.2738 45.4435 32.0673 45.2688L32.2071 45.1506C32.166 45.615 32.185 46.0827 32.2636 46.5423C30.1663 48.885 30.7847 49.2961 26.5901 50.1585C22.3471 51.0316 24.8424 52.5872 26.4664 52.9955C28.4401 53.4899 33.0057 54.1884 36.0925 49.8737L35.9688 50.3653C36.7916 51.0236 37.367 54.6451 37.2702 57.9282C37.1734 61.2112 37.1089 63.4626 37.7542 65.225C38.3995 66.9874 39.0448 70.9475 44.5569 69.7923C49.1629 68.8063 51.5479 66.2459 51.884 61.985C52.1206 58.9545 52.653 59.4004 52.6907 56.6923L53.1209 55.4081C53.613 51.2976 53.2016 49.9731 56.0383 50.591L56.7293 50.6528C58.8185 50.7468 61.5531 50.317 63.1556 49.5728C66.6108 47.9716 68.6597 45.2957 65.2529 45.9996H65.2502Z" fill="#336791"/>
<path d="M51.2651 6.00104C48.8437 6.02317 46.74 6.38153 45.2841 6.71861C44.5561 6.88715 43.9885 7.05317 43.6236 7.16905C43.4411 7.22699 43.3151 7.26977 43.2217 7.30523C43.1984 7.31411 43.1757 7.31947 43.1476 7.33143C43.1336 7.33741 43.1222 7.3443 43.0948 7.35763C43.0812 7.36431 43.0639 7.37353 43.0366 7.38906C43.0093 7.40459 42.8889 7.4935 42.8885 7.49381C42.8882 7.49413 42.6875 8.71929 42.6876 8.71944C42.6877 8.71959 43.5384 9.1856 43.539 9.18559C43.5395 9.18558 43.6599 9.17462 43.6871 9.16988C43.7142 9.16513 43.7315 9.16261 43.7452 9.15939C43.8001 9.1466 43.8161 9.14073 43.8404 9.13319C43.956 9.08893 44.0619 9.02315 44.1524 8.9394C44.1524 8.93981 44.147 8.95511 44.147 8.95511C44.1474 8.9548 44.0246 9.04004 43.9989 9.05463C43.9732 9.06921 43.9624 9.07541 43.9513 9.08083C43.997 9.06417 44.0785 9.04061 44.2158 8.99702C44.53 8.89725 45.0488 8.74456 45.7229 8.58848C47.0712 8.27633 49.0432 7.94374 51.2809 7.92329C55.7563 7.8824 61.2102 9.04817 65.2102 14.109C65.7015 14.7314 66.0939 16.2254 66.0616 18.2835C66.0294 20.3416 65.6298 22.9432 64.8824 25.8101C63.3874 31.5437 60.4936 38.356 56.4317 44.3253C56.289 44.5366 56.2367 44.7953 56.2862 45.0447C56.3358 45.2941 56.4832 45.5138 56.6961 45.6557C56.9088 45.7976 57.1695 45.8502 57.4212 45.8021C57.673 45.754 57.8952 45.6091 58.0393 45.3991C62.2438 39.2203 65.2066 32.2433 66.7597 26.2867C67.5363 23.3084 67.9615 20.5888 67.9972 18.3149C68.0329 16.0409 67.7365 14.1894 66.7386 12.9253C62.2964 7.30492 56.108 5.95679 51.2651 6.00104ZM17.4995 6.91764C14.277 7.10014 10.9691 8.05874 8.557 10.5893C6.14489 13.1198 4.73938 17.1281 5.04029 23.0812C5.11106 24.48 5.59544 27.3864 6.40995 30.9901C7.22447 34.5938 8.36949 38.8243 9.77859 42.6231C11.1877 46.4218 12.8096 49.7838 14.8395 51.7367C15.8544 52.7131 17.0502 53.3709 18.372 53.3132C19.6939 53.2555 20.9486 52.4832 22.0791 51.1343C25.049 47.5891 27.7376 44.8124 27.7376 44.8124C27.9149 44.6283 28.0111 44.382 28.0052 44.1276C27.9992 43.8733 27.8916 43.6317 27.7059 43.4559C27.5199 43.2803 27.2713 43.185 27.0145 43.1909C26.7576 43.1967 26.5137 43.3034 26.3362 43.4873C26.3362 43.4873 23.6071 46.3045 20.5878 49.9087C19.6674 51.0069 18.9127 51.3637 18.2874 51.391C17.6622 51.4183 16.9749 51.1162 16.188 50.3592C14.6142 48.8451 12.9633 45.6443 11.5978 41.9631C10.2322 38.2819 9.09826 34.1123 8.29787 30.5711C7.49748 27.0299 7.02958 24.0499 6.9758 22.9869C6.69187 17.3698 7.99151 13.9729 9.96368 11.9039C11.9359 9.83493 14.6949 8.99976 17.6105 8.83464C23.4418 8.5044 29.6096 10.9611 29.6096 10.9611C29.8474 11.0575 30.114 11.0565 30.351 10.9583C30.588 10.8601 30.7759 10.6727 30.8735 10.4374C30.9709 10.2019 30.9698 9.9378 30.8707 9.70308C30.7715 9.46836 30.5823 9.28222 30.3447 9.18557C30.3447 9.18557 23.9444 6.55265 17.4995 6.91764ZM43.4967 7.26333C43.4961 7.26334 44.3429 7.7244 44.3428 7.72425C44.3428 7.72423 44.3255 7.82693 44.3217 7.84995C44.2327 7.65446 44.0802 7.49409 43.8885 7.39442C43.6968 7.29475 43.477 7.26151 43.264 7.29999C43.2613 7.30086 43.258 7.29954 43.301 7.28951C43.3118 7.287 43.3235 7.28342 43.3486 7.27902C43.3738 7.27462 43.4972 7.26331 43.4967 7.26331L43.4967 7.26333ZM36.6589 47.3737C36.4023 47.367 36.1536 47.4615 35.9672 47.6362C35.7808 47.811 35.672 48.0519 35.6647 48.306C35.5558 52.1423 35.5657 55.9899 35.7017 59.1271C35.7697 60.6956 35.8712 62.0834 36.0032 63.2177C36.1351 64.352 36.2691 65.2001 36.5373 65.8575C36.9207 66.7973 37.5682 68.3475 38.9752 69.5239C40.3822 70.7003 42.5683 71.3937 45.5644 70.76C45.5644 70.7582 45.5644 70.7564 45.5644 70.7546C47.9852 70.241 49.78 69.4521 51.0536 68.141C52.3272 66.83 52.9926 65.0841 53.3752 62.8824C53.3772 62.8685 53.379 62.8546 53.3805 62.8406L55.0939 49.3849C55.1099 49.2597 55.1009 49.1326 55.0674 49.0109C55.0338 48.8891 54.9763 48.7751 54.8982 48.6754C54.8201 48.5757 54.7229 48.4922 54.6122 48.4297C54.5015 48.3672 54.3795 48.3269 54.253 48.3112C54.1266 48.2953 53.9983 48.3042 53.8753 48.3374C53.7524 48.3707 53.6373 48.4276 53.5366 48.505C53.4359 48.5823 53.3516 48.6786 53.2885 48.7882C53.2254 48.8979 53.1848 49.0188 53.1689 49.144L51.4608 62.5735C51.1121 64.5672 50.5677 65.8739 49.6575 66.8108C48.7441 67.751 47.3744 68.4092 45.1572 68.8797C42.6 69.4205 41.2009 68.8748 40.2232 68.0574C39.2455 67.2399 38.7046 66.0399 38.3353 65.1347C38.2271 64.8696 38.0519 64.062 37.9281 62.9977C37.8043 61.9335 37.7039 60.5808 37.6372 59.0433C37.5039 55.9682 37.4925 52.1541 37.6002 48.3584C37.6069 48.1042 37.5116 47.8579 37.3351 47.6733C37.1587 47.4887 36.9155 47.3809 36.6589 47.3737H36.6589Z" fill="white"/>
<path d="M37.7498 7.002C33.737 6.94382 30.6454 8.15944 28.3768 10.0292C26.1082 11.8989 24.6636 14.38 23.7302 16.8206C21.8634 21.7017 22.0023 26.5496 22.0023 26.5496C22.0053 26.6765 22.0335 26.8016 22.0854 26.9177C22.1373 27.0338 22.2117 27.1387 22.3046 27.2262C22.3974 27.3137 22.5068 27.3823 22.6265 27.4279C22.7461 27.4735 22.8737 27.4953 23.0018 27.492C23.2598 27.4847 23.5042 27.3764 23.6816 27.1909C23.859 27.0053 23.9549 26.7577 23.9482 26.5022C23.9482 26.5022 23.8453 21.9583 25.5484 17.505C26.4 15.2783 27.6926 13.1031 29.6209 11.5138C31.5492 9.92453 34.1143 8.88179 37.7232 8.93412C45.0185 9.03991 49.7358 12.6946 52.6519 16.3889C54.11 18.236 55.1005 20.0954 55.677 21.4692C55.8751 21.9415 55.9624 22.2487 56.0651 22.5801C52.6992 22.266 50.2585 22.7126 48.9676 24.1753C47.4915 25.8476 47.5775 28.2146 48.1541 30.5034C48.7307 32.7921 49.8395 35.1453 50.8602 37.0842C51.3706 38.0536 51.8613 38.9198 52.2478 39.6059C52.6343 40.292 52.9292 40.8397 52.9921 40.9905C53.5797 42.4069 54.331 43.4107 54.922 44.1493C55.3333 44.6632 55.4497 44.8688 55.6025 45.1127C55.3705 45.177 55.2081 45.2054 54.8848 45.3497C54.3316 45.5964 53.6977 46.0524 53.2846 46.8027C52.8714 47.553 52.6779 48.5335 52.7529 49.8299C52.7826 50.3384 53.072 50.8054 53.4122 51.0934C53.7523 51.3814 54.1363 51.5507 54.5499 51.6778C55.3771 51.9318 56.3555 52.0106 57.4102 51.9989C59.5195 51.9754 61.8924 51.5778 63.5507 50.8143C65.4194 49.9554 66.8803 48.9144 67.6178 47.8135C67.8022 47.5383 67.9564 47.244 67.9953 46.8448C68.0342 46.4456 67.8299 45.8992 67.4636 45.6234C66.7312 45.0718 66.029 45.2103 65.0659 45.4076C61.2264 46.1916 59.2959 45.8945 58.4522 45.5497C58.0303 45.3773 57.8724 45.2058 57.8036 45.118C57.8032 45.1165 57.8039 45.1142 57.8036 45.1126C57.5955 44.1902 57.0055 43.6456 56.4479 42.9488C55.8902 42.2521 55.2848 41.4355 54.7944 40.2533C54.6212 39.8382 54.3367 39.3514 53.9491 38.6634C53.5615 37.9754 53.0822 37.1276 52.5881 36.189C51.5998 34.3118 50.55 32.053 50.0415 30.0347C49.533 28.0163 49.6116 26.382 50.4349 25.4492C51.2582 24.5164 53.1478 23.8857 57.0699 24.5068L57.4208 24.4963C57.6913 24.4415 57.9293 24.2571 58.0428 24.1014C58.1563 23.9457 58.1894 23.8185 58.2129 23.7224C58.26 23.5301 58.2508 23.4185 58.2448 23.3064C58.2329 23.0826 58.1942 22.8769 58.1332 22.6275C58.0111 22.1286 57.7993 21.4895 57.4793 20.7269C56.8393 19.2017 55.7722 17.2107 54.1884 15.2043C51.0207 11.1915 45.6979 7.11725 37.7498 7.002ZM56.8413 46.7185C57.1034 46.9344 57.2884 47.163 57.7079 47.3344C59.0646 47.8889 61.3948 48.0342 65.2094 47.2976C64.6342 47.8412 63.9641 48.4925 62.7266 49.0612C61.516 49.6186 59.2408 50.0516 57.3889 50.072C56.4629 50.0823 55.6282 49.9884 55.1294 49.8351C54.8978 49.764 54.7646 49.6816 54.7094 49.6403C54.6676 48.6608 54.8159 48.052 54.9965 47.724C55.1845 47.3825 55.3932 47.2393 55.6876 47.108C55.982 46.9767 56.3339 46.915 56.7615 46.7658C56.7841 46.758 56.8176 46.7269 56.8413 46.7185L56.8413 46.7185Z" fill="white"/>
<path d="M33.2226 45.0091C32.5476 45.0653 31.832 45.4327 31.1964 46.1002C31.1895 46.1018 31.1826 46.1035 31.1757 46.1052C30.0888 47.2547 29.6996 47.885 29.2638 48.2137C28.8281 48.5424 28.1156 48.815 26.0791 49.2115C24.957 49.4301 24.2149 49.6674 23.653 50.1011C23.372 50.3179 23.1249 50.6195 23.0347 50.9907C22.9445 51.3619 23.0412 51.742 23.1958 52.013C23.5049 52.555 23.966 52.8324 24.4426 53.0795C24.9192 53.3267 25.4336 53.5098 25.9181 53.6251C26.9597 53.8721 28.7031 54.182 30.6561 53.8659C32.6092 53.5498 34.7788 52.5584 36.4488 50.3468C37.141 49.4301 37.1085 48.3017 36.7502 47.388C36.3919 46.4743 35.7252 45.6777 34.7552 45.2992C34.4377 45.1748 33.903 44.9524 33.2226 45.0091ZM33.3888 46.803C33.5397 46.7904 33.7282 46.843 34.0278 46.9603C34.3346 47.08 34.7719 47.5116 34.9682 48.0121C35.1645 48.5126 35.1343 48.9835 34.8954 49.2998C33.5118 51.1321 31.896 51.8395 30.3392 52.0915C28.7824 52.3435 27.2913 52.0913 26.3804 51.8752C26.0616 51.7993 25.6639 51.656 25.357 51.4968C25.2568 51.4448 25.274 51.4365 25.2011 51.3837C25.426 51.2711 25.6959 51.1254 26.4636 50.9758C28.5766 50.5645 29.6339 50.2385 30.4483 49.6242C31.2609 49.0112 31.6059 48.35 32.5888 47.3093C32.5922 47.3093 32.5957 47.3093 32.5991 47.3093C33.0184 46.8647 33.238 46.8156 33.3888 46.803L33.3888 46.803Z" fill="white"/>
<path d="M28.0204 22.2712C26.6057 22.601 25.2789 23.1769 24.2727 23.7436C23.7696 24.0269 23.3506 24.3053 23.0183 24.579C22.8522 24.7158 22.7084 24.8475 22.5744 25.0123C22.4404 25.1772 22.2492 25.3529 22.2492 25.8373C22.2492 26.4501 22.3595 27.5172 22.3937 29.0744C22.428 30.6315 22.3887 32.5995 22.0995 34.7027C21.2836 40.5987 25.5998 45.574 30.8543 45.6358C30.8617 45.8178 30.7022 46.006 30.7305 46.1892C30.7495 46.3138 30.7927 46.4333 30.8575 46.541C30.9224 46.6486 31.0076 46.7423 31.1084 46.8165C31.2091 46.8907 31.3233 46.9441 31.4445 46.9735C31.5657 47.003 31.6914 47.0079 31.8145 46.9881C31.9372 46.9682 32.0548 46.9241 32.1607 46.8582C32.2665 46.7923 32.3585 46.706 32.4313 46.6042C32.5042 46.5024 32.5565 46.3871 32.5853 46.2648C32.6141 46.1425 32.6188 46.0157 32.5991 45.8916C32.4511 44.9317 32.9923 43.389 33.6986 41.4641C34.6567 38.8591 37.2561 35.4121 35.2731 26.1296C34.86 24.1971 33.7179 22.9205 32.3359 22.3809C30.9539 21.8412 29.4351 21.9415 28.0204 22.2712L28.0204 22.2712ZM28.4437 24.1352C29.6366 23.8571 30.8097 23.8366 31.6545 24.1665C32.4992 24.4964 33.1153 25.0826 33.425 26.5317C35.3219 35.411 33.0687 37.6854 31.9229 40.801C31.534 41.8608 31.4972 42.8278 31.257 43.8188C27.0027 44.0434 23.2803 39.9773 23.9733 34.969C23.9733 34.9672 23.9733 34.9655 23.9733 34.9637C24.2814 32.7231 24.324 30.6579 24.2882 29.0326C24.2555 27.548 24.1699 26.5391 24.154 26.114C24.1785 26.0915 24.1783 26.0885 24.2108 26.0618C24.4151 25.8935 24.7672 25.6563 25.1967 25.4143C26.0559 24.9305 27.2507 24.4132 28.4437 24.1352V24.1352Z" fill="white"/>
<path d="M30.0024 26.2383C29.9557 26.4252 30.5927 26.9252 31.419 26.9923C32.2454 27.0594 32.9509 26.6696 32.9976 26.4811C33.0443 26.2926 32.4073 26.0881 31.581 26.021C30.7546 25.9539 30.0436 26.053 30.0024 26.2383V26.2383Z" fill="white"/>
<path d="M31.1417 25.0493C30.6521 24.9704 30.1954 24.9878 29.8229 25.0899C29.6366 25.141 29.4716 25.2097 29.3247 25.3268C29.179 25.4429 29.0374 25.6251 29.0081 25.8681C28.9754 26.1281 29.0459 26.3213 29.1371 26.5246C29.2283 26.7279 29.3622 26.9377 29.5239 27.1336C29.8474 27.5256 30.3063 27.8894 30.8662 27.9796C31.4258 28.0697 31.9268 27.8492 32.2963 27.56C32.4811 27.4154 32.6346 27.2571 32.7535 27.0863C32.8724 26.9155 32.9654 26.7458 32.9938 26.5178C33.0243 26.2736 32.9378 26.0483 32.8239 25.8884C32.7099 25.7286 32.5633 25.6033 32.396 25.4959C32.0614 25.2811 31.6302 25.128 31.1417 25.0493ZM31.042 25.8681C31.4568 25.935 31.8235 26.0745 32.0502 26.2201C32.1635 26.2928 32.2365 26.3667 32.2671 26.4095C32.2975 26.4523 32.2797 26.4358 32.2848 26.396C32.2877 26.3724 32.2653 26.467 32.1968 26.5652C32.1285 26.6633 32.0194 26.7768 31.892 26.8765C31.6374 27.0758 31.3096 27.2093 30.966 27.1539C30.6226 27.0986 30.2776 26.8464 30.0399 26.5584C29.921 26.4144 29.8293 26.2642 29.7761 26.1456C29.7304 26.0438 29.734 25.9958 29.7292 26.0102C29.7284 26.0126 29.7184 25.9818 29.7175 25.9899L29.7235 25.9832C29.7184 26.0283 29.6897 26.0419 29.7295 26.0102C29.7692 25.9786 29.8608 25.9299 29.9874 25.8952C30.2406 25.8258 30.6287 25.8015 31.0424 25.8681L31.042 25.8681Z" fill="white"/>
<path d="M53.9978 25.4766C54.0418 25.8504 53.4074 26.8505 52.5809 26.9847C51.7543 27.1188 51.0431 26.3393 51.0019 25.9622C50.9607 25.5852 51.5923 25.1763 52.4189 25.0421C53.2454 24.9079 53.9567 25.106 53.9978 25.4766Z" fill="white"/>
<path d="M52.8735 25.0372C52.3564 25.0958 51.902 25.2143 51.5647 25.3671C51.3961 25.4435 51.2544 25.5284 51.1521 25.629C51.0498 25.7296 50.983 25.8571 51.0038 25.9904C51.024 26.1196 51.1063 26.2334 51.223 26.3518C51.3397 26.4701 51.493 26.589 51.6808 26.6922C52.0565 26.8985 52.569 27.0485 53.125 26.9855C53.6811 26.9224 54.1537 26.6611 54.4853 26.3779C54.6512 26.2364 54.7823 26.0892 54.8722 25.9485C54.9621 25.8077 55.0181 25.6789 54.9947 25.54C54.9732 25.4061 54.8688 25.2998 54.7368 25.2257C54.6048 25.1517 54.4416 25.0997 54.2532 25.0634C53.8764 24.9907 53.391 24.9785 52.8735 25.0372ZM52.9315 25.3514C53.4076 25.2975 53.8515 25.3123 54.163 25.3724C54.3187 25.4024 54.4378 25.4465 54.5111 25.4876C54.5844 25.5287 54.6044 25.5602 54.6078 25.5819C54.6108 25.5998 54.5933 25.6934 54.524 25.8018C54.4548 25.9102 54.3441 26.0364 54.2016 26.158C53.9168 26.4011 53.5044 26.6164 53.0669 26.666C52.6293 26.7156 52.219 26.5968 51.9064 26.4251C51.7501 26.3392 51.6211 26.2425 51.5325 26.1527C51.4439 26.0629 51.3952 25.9774 51.3906 25.9485C51.3867 25.9235 51.3979 25.8895 51.4551 25.8333C51.5123 25.777 51.619 25.7077 51.7581 25.6447C52.0365 25.5186 52.455 25.4054 52.9315 25.3514Z" fill="white"/>
<path d="M57.1558 22.0015C56.9476 22.0159 56.7525 22.1343 56.6134 22.3307C56.4743 22.5271 56.4025 22.7854 56.4138 23.0488C56.5149 25.4025 55.982 27.099 55.9077 29.9729C55.8526 32.1291 56.2341 34.2579 56.3152 36.3381C56.3962 38.4183 56.2173 40.4011 55.1315 42.4537C55.0161 42.6732 54.9744 42.9417 55.0154 43.2001C55.0564 43.4586 55.1768 43.6858 55.3502 43.832C55.5232 43.9785 55.735 44.0321 55.9392 43.9813C56.1434 43.9304 56.3234 43.7792 56.4396 43.5607C57.7494 41.0846 57.9746 38.5417 57.8849 36.2404C57.7952 33.9392 57.4316 31.8326 57.4775 30.038C57.5438 27.4719 58.102 25.6986 57.9836 22.9402C57.9721 22.6769 57.8785 22.43 57.7233 22.254C57.5681 22.0779 57.3639 21.9871 57.1558 22.0015Z" fill="white"/>
</svg>
