<svg width="680" height="456" viewBox="0 0 680 456" fill="none" xmlns="http://www.w3.org/2000/svg">
<ellipse cx="297" cy="270.5" rx="188" ry="183.5" stroke="black" stroke-opacity="0.2" stroke-width="4" stroke-miterlimit="3.99933" stroke-linecap="round" stroke-linejoin="round" stroke-dasharray="0.5 10"/>
<circle cx="297" cy="271" r="135" fill="black" fill-opacity="0.1"/>
<g filter="url(#filter0_d)">
<rect x="13" y="209" width="210" height="69" rx="13" fill="black"/>
</g>
<path fill-rule="evenodd" clip-rule="evenodd" d="M108.883 231V253.143C108.883 258.014 104.886 262 100 262V257.571C102.475 257.571 104.442 255.61 104.442 253.143V231H108.883ZM189.975 235.429H200V231H175.571V235.429H185.533V262H189.975V235.429ZM162.183 231V253.143C162.183 255.61 160.216 257.571 157.741 257.571C155.266 257.571 153.299 255.61 153.299 253.143V239.857C153.299 234.986 149.302 231 144.416 231C139.53 231 135.533 234.986 135.533 239.857V253.143C135.533 255.61 133.566 257.571 131.091 257.571C128.617 257.571 126.65 255.61 126.65 253.143V231H122.208V253.143C122.208 258.014 126.206 262 131.091 262C135.977 262 139.975 258.014 139.975 253.143V239.857C139.975 237.39 141.942 235.429 144.416 235.429C146.891 235.429 148.858 237.39 148.858 239.857V253.143C148.858 258.014 152.855 262 157.741 262C162.627 262 166.624 258.014 166.624 253.143V231H162.183Z" fill="white"/>
<path fill-rule="evenodd" clip-rule="evenodd" d="M59.665 230.84L59.6098 216H51.335L51.3901 230.84L55.5275 236.522L59.665 230.84Z" fill="white"/>
<path fill-rule="evenodd" clip-rule="evenodd" d="M51.3902 256.271V271.165H59.665V256.271L55.5276 250.589L51.3902 256.271Z" fill="white"/>
<path fill-rule="evenodd" clip-rule="evenodd" d="M59.665 256.271L68.3812 268.297L75.0562 263.442L66.3401 251.416L59.665 249.265V256.271Z" fill="#00F2E6"/>
<path fill-rule="evenodd" clip-rule="evenodd" d="M51.3902 230.84L42.6189 218.813L35.9438 223.668L44.66 235.694L51.3902 237.846V230.84Z" fill="#00F2E6"/>
<path fill-rule="evenodd" clip-rule="evenodd" d="M44.66 235.694L30.5376 231.115L28 238.949L42.1224 243.583L48.7974 241.376L44.66 235.694Z" fill="#00B9F1"/>
<path fill-rule="evenodd" clip-rule="evenodd" d="M62.2026 245.734L66.34 251.416L80.4624 255.995L83 248.161L68.8776 243.583L62.2026 245.734Z" fill="#00B9F1"/>
<path fill-rule="evenodd" clip-rule="evenodd" d="M68.8776 243.583L83 238.949L80.4624 231.115L66.34 235.694L62.2026 241.376L68.8776 243.583Z" fill="#D63AFF"/>
<path fill-rule="evenodd" clip-rule="evenodd" d="M42.1224 243.583L28 248.161L30.5376 255.995L44.66 251.416L48.7974 245.734L42.1224 243.583Z" fill="#D63AFF"/>
<path fill-rule="evenodd" clip-rule="evenodd" d="M44.66 251.416L35.9438 263.442L42.6189 268.297L51.3902 256.271V249.265L44.66 251.416Z" fill="#FB015B"/>
<path fill-rule="evenodd" clip-rule="evenodd" d="M66.3401 235.694L75.0562 223.668L68.3812 218.813L59.665 230.84V237.846L66.3401 235.694Z" fill="#FB015B"/>
<circle cx="223.5" cy="243.5" r="12.5" fill="#C0008A" stroke="white" stroke-width="2"/>
<circle cx="455.5" cy="242.5" r="12.5" fill="#C0008A" stroke="white" stroke-width="2"/>
<circle cx="225.5" cy="109.5" r="12.5" fill="#C0008A" stroke="white" stroke-width="2"/>
<path d="M342.432 39.2511L223.432 244.251M456.002 243.5L223.002 244.5M342.438 38.7587L455.438 243.759" stroke="#C0008A" stroke-width="3"/>
<path d="M222.002 244.825L221.989 245.727L222.779 246.161L341.117 311.247L341.861 311.656L342.594 311.228L456.245 245.015L456.977 244.588L456.989 243.741L458.996 108.302L459.009 107.441L458.271 106.996L343.135 37.5171L342.361 37.0501L341.587 37.5161L224.725 107.831L224.011 108.261L223.999 109.095L222.002 244.825Z" stroke="#C0008A" stroke-width="3"/>
<g filter="url(#filter1_d)">
<rect x="192" y="3" width="150" height="69" rx="13" fill="black"/>
</g>
<circle cx="342.5" cy="39.5" r="12.5" fill="#C0008A" stroke="white" stroke-width="2"/>
<path d="M225.75 31.4H220.25V28.6H225.75V31.4ZM234 25.8V48.2C234 49.754 232.776 51 231.25 51H214.75C213.224 51 212 49.754 212 48.2V25.8C212 25.0574 212.29 24.3452 212.805 23.8201C213.321 23.295 214.021 23 214.75 23H231.25C232.776 23 234 24.26 234 25.8ZM231.25 38.4H214.75V48.2H231.25V38.4ZM231.25 25.8H214.75V35.6H231.25V25.8ZM225.75 41.2H220.25V44H225.75V41.2Z" fill="white"/>
<path d="M256.435 48H253.944V26.584H265.883V28.7959H256.435V36.6328H265.312V38.8447H256.435V48ZM271.508 48H269.076V31.9453H271.508V48ZM268.871 27.5947C268.871 27.0381 269.008 26.6328 269.281 26.3789C269.555 26.1152 269.896 25.9834 270.307 25.9834C270.697 25.9834 271.034 26.1152 271.317 26.3789C271.601 26.6426 271.742 27.0479 271.742 27.5947C271.742 28.1416 271.601 28.5518 271.317 28.8252C271.034 29.0889 270.697 29.2207 270.307 29.2207C269.896 29.2207 269.555 29.0889 269.281 28.8252C269.008 28.5518 268.871 28.1416 268.871 27.5947ZM279.096 48H276.664V25.207H279.096V48ZM291.034 48.293C288.661 48.293 286.786 47.5703 285.409 46.125C284.042 44.6797 283.358 42.6729 283.358 40.1045C283.358 37.5166 283.993 35.4609 285.263 33.9375C286.542 32.4141 288.256 31.6523 290.404 31.6523C292.416 31.6523 294.008 32.3164 295.18 33.6445C296.352 34.9629 296.938 36.7061 296.938 38.874V40.4121H285.878C285.927 42.2969 286.4 43.7275 287.299 44.7041C288.207 45.6807 289.481 46.1689 291.122 46.1689C292.851 46.1689 294.56 45.8076 296.249 45.085V47.2529C295.39 47.624 294.574 47.8877 293.803 48.0439C293.041 48.21 292.118 48.293 291.034 48.293ZM290.375 33.6885C289.086 33.6885 288.056 34.1084 287.284 34.9482C286.522 35.7881 286.073 36.9502 285.937 38.4346H294.33C294.33 36.9014 293.988 35.7295 293.305 34.9189C292.621 34.0986 291.645 33.6885 290.375 33.6885ZM311.454 43.6201C311.454 45.1143 310.897 46.2666 309.784 47.0771C308.671 47.8877 307.108 48.293 305.097 48.293C302.968 48.293 301.308 47.9561 300.116 47.2822V45.0264C300.888 45.417 301.713 45.7246 302.592 45.9492C303.48 46.1738 304.335 46.2861 305.155 46.2861C306.425 46.2861 307.401 46.0859 308.085 45.6855C308.769 45.2754 309.11 44.6553 309.11 43.8252C309.11 43.2002 308.837 42.668 308.29 42.2285C307.753 41.7793 306.698 41.252 305.126 40.6465C303.632 40.0898 302.567 39.6064 301.933 39.1963C301.308 38.7764 300.839 38.3027 300.526 37.7754C300.224 37.248 300.072 36.6182 300.072 35.8857C300.072 34.5771 300.604 33.5469 301.669 32.7949C302.733 32.0332 304.193 31.6523 306.049 31.6523C307.777 31.6523 309.467 32.0039 311.117 32.707L310.253 34.6846C308.642 34.0205 307.182 33.6885 305.873 33.6885C304.721 33.6885 303.852 33.8691 303.266 34.2305C302.68 34.5918 302.387 35.0898 302.387 35.7246C302.387 36.1543 302.494 36.5205 302.709 36.8232C302.934 37.126 303.29 37.4141 303.778 37.6875C304.267 37.9609 305.204 38.3564 306.591 38.874C308.495 39.5674 309.779 40.2656 310.443 40.9688C311.117 41.6719 311.454 42.5557 311.454 43.6201Z" fill="white"/>
<g filter="url(#filter2_d)">
<rect x="457" y="74" width="210" height="69" rx="13" fill="#6D0093"/>
</g>
<path d="M476.295 111.404L482.819 108.253L476.639 105.362C476.159 105.138 475.878 104.545 476.209 103.992L476.852 103.248C477.266 102.795 477.716 102.465 478.263 102.68L482.854 104.411C482.955 104.448 483.065 104.453 483.168 104.424L484.945 103.92C485.077 103.883 485.219 103.918 485.318 104.012L487.219 105.817C487.645 103.374 488.638 101.126 490.064 99.2186L487.285 99.1968C487.165 99.1958 487.055 99.1304 486.997 99.0254L486.013 97.241C485.962 97.148 485.881 97.075 485.784 97.0336L481.236 95.0943C480.956 94.9752 480.785 94.3949 480.838 94.0186L480.986 92.6604C481.107 92.2704 481.655 91.9271 481.917 92.0238L488.758 94.4084L486.432 87.9946C486.252 87.4966 486.472 86.8787 487.097 86.7219L488.077 86.6505C488.691 86.6232 489.243 86.7074 489.477 87.2463L491.5 91.7168C491.544 91.8143 491.619 91.8952 491.712 91.9476L493.325 92.8484C493.445 92.9153 493.52 93.0401 493.524 93.177L493.592 95.7984C495.538 94.4312 497.81 93.4991 500.271 93.1449L498.319 91.1628C498.235 91.0773 498.204 90.9532 498.237 90.8383L498.804 88.8809C498.833 88.779 498.828 88.6701 498.788 88.5718L496.943 83.9846C496.83 83.703 497.118 83.1709 497.423 82.9428L498.488 82.0871C498.849 81.8971 499.479 82.0414 499.596 82.2948L502.747 88.8188L505.638 82.6387C505.862 82.1592 506.455 81.878 507.008 82.2093L507.752 82.8517C508.205 83.2662 508.535 83.716 508.32 84.263L506.59 88.8544C506.552 88.9548 506.547 89.0645 506.576 89.1676L507.08 90.9452C507.117 91.0768 507.082 91.2185 506.988 91.3178L505.183 93.219C507.626 93.6453 509.874 94.638 511.781 96.0638L511.803 93.2846C511.804 93.1648 511.87 93.055 511.974 92.9971L513.759 92.0132C513.852 91.9621 513.925 91.8814 513.967 91.7839L515.906 87.2356C516.025 86.9563 516.605 86.7845 516.982 86.8383L518.34 86.9861C518.729 87.1072 519.073 87.6548 518.976 87.9165L516.591 94.7581L523.005 92.4319C523.503 92.2517 524.121 92.4722 524.278 93.0975L524.35 94.0774C524.377 94.6908 524.293 95.2429 523.754 95.4773L519.283 97.5002C519.186 97.5445 519.105 97.6188 519.052 97.7124L518.151 99.3252C518.085 99.4446 517.96 99.5202 517.823 99.5237L515.202 99.5921C516.569 101.538 517.501 103.81 517.855 106.271L519.837 104.319C519.923 104.235 520.047 104.204 520.162 104.237L522.119 104.803C522.221 104.833 522.33 104.827 522.428 104.788L527.015 102.943C527.297 102.83 527.829 103.119 528.057 103.423L528.913 104.488C529.103 104.849 528.958 105.479 528.705 105.596L522.181 108.747L528.361 111.638C528.841 111.862 529.122 112.455 528.791 113.008L528.148 113.752C527.734 114.205 527.284 114.535 526.737 114.32L522.145 112.589C522.045 112.552 521.936 112.547 521.832 112.576L520.055 113.08C519.923 113.117 519.781 113.082 519.682 112.988L517.781 111.183C517.355 113.626 516.362 115.874 514.936 117.781L517.715 117.803C517.835 117.804 517.945 117.87 518.003 117.975L518.987 119.759C519.038 119.852 519.119 119.925 519.216 119.967L523.764 121.906C524.044 122.025 524.216 122.605 524.162 122.981L524.014 124.34C523.893 124.73 523.345 125.073 523.083 124.976L516.242 122.592L518.568 129.005C518.748 129.503 518.528 130.121 517.903 130.278L516.923 130.349C516.309 130.377 515.757 130.293 515.523 129.754L513.5 125.283C513.456 125.186 513.381 125.105 513.288 125.052L511.675 124.152C511.555 124.085 511.48 123.96 511.476 123.823L511.408 121.202C509.462 122.569 507.19 123.501 504.729 123.855L506.681 125.837C506.765 125.923 506.796 126.047 506.763 126.162L506.196 128.119C506.167 128.221 506.173 128.33 506.212 128.428L508.057 133.015C508.17 133.297 507.881 133.829 507.577 134.057L506.512 134.913C506.151 135.103 505.521 134.959 505.404 134.705L502.253 128.181L499.362 134.361C499.137 134.841 498.545 135.122 497.992 134.791L497.249 134.148C496.795 133.734 496.464 133.284 496.68 132.737L498.41 128.146C498.448 128.045 498.453 127.936 498.424 127.832L497.92 126.055C497.883 125.923 497.918 125.782 498.012 125.682L499.817 123.781C497.374 123.355 495.126 122.362 493.219 120.936L493.197 123.716C493.196 123.835 493.13 123.945 493.025 124.003L491.241 124.987C491.148 125.038 491.075 125.119 491.033 125.216L489.094 129.764C488.975 130.044 488.395 130.216 488.018 130.162L486.661 130.014C486.27 129.893 485.927 129.345 486.024 129.083L488.408 122.242L481.995 124.568C481.497 124.748 480.879 124.528 480.722 123.903L480.65 122.923C480.623 122.309 480.708 121.757 481.246 121.523L485.717 119.5C485.814 119.455 485.895 119.381 485.948 119.288L486.848 117.675C486.915 117.555 487.04 117.48 487.177 117.476L489.798 117.408C488.431 115.462 487.499 113.19 487.145 110.729L485.163 112.681C485.077 112.765 484.953 112.796 484.838 112.763L482.881 112.197C482.779 112.167 482.67 112.173 482.572 112.212L477.985 114.057C477.703 114.17 477.171 113.881 476.943 113.577L476.087 112.512C475.897 112.151 476.041 111.521 476.295 111.404ZM491.375 106.77H494.674C494.914 105.679 495.376 104.673 496.01 103.799L493.698 101.486C492.503 102.983 491.681 104.791 491.375 106.77ZM498.191 101.744C499.098 101.164 500.128 100.761 501.236 100.585V97.3153C499.239 97.5385 497.4 98.2836 495.859 99.4119L498.191 101.744ZM498.592 108.5C498.592 110.658 500.342 112.408 502.5 112.408C504.658 112.408 506.408 110.658 506.408 108.5C506.408 106.342 504.658 104.592 502.5 104.592C500.342 104.592 498.592 106.342 498.592 108.5ZM504.23 97.3752V100.674C505.321 100.914 506.327 101.376 507.201 102.01L509.514 99.6978C508.016 98.5031 506.209 97.6805 504.23 97.3752ZM509.257 104.191C509.836 105.098 510.24 106.128 510.415 107.235H513.685C513.461 105.239 512.716 103.4 511.588 101.859L509.257 104.191ZM513.625 110.23H510.326C510.086 111.321 509.624 112.327 508.99 113.201L511.302 115.514C512.497 114.017 513.319 112.209 513.625 110.23ZM506.809 115.256C505.902 115.836 504.872 116.239 503.765 116.415V119.685C505.761 119.461 507.6 118.716 509.141 117.588L506.809 115.256ZM500.769 119.625V116.326C499.679 116.086 498.672 115.624 497.799 114.99L495.486 117.302C496.984 118.497 498.791 119.319 500.769 119.625ZM495.743 112.809C495.164 111.902 494.761 110.872 494.585 109.765H491.315C491.539 111.761 492.284 113.6 493.412 115.141L495.743 112.809Z" fill="white"/>
<path d="M553.677 120.516L543.902 108.172L552.843 96.4841H556.379L547.205 107.929V108.137L557.413 120.516H553.677ZM541 120.516L541.1 108.31L541 96.4841H543.802V120.516H541Z" fill="white"/>
<path d="M560.254 120.516V96.4841H564.023L573.464 117.024H573.564L573.131 96.4841H575.933V120.516H572.163L562.722 99.9765H562.622L563.056 120.516H560.254Z" fill="white"/>
<path d="M582.928 120.516V96.4841H594.304V99.0429L585.73 98.9391L585.564 107.065H593.503V109.52H585.564L585.73 118.026L594.304 117.957V120.516H582.928Z" fill="white"/>
<path d="M597.095 120.516L603.901 107.687L597.562 96.4841H600.698L605.435 105.613L610.273 96.4841H613.408L606.836 107.964L613.909 120.516H610.606L605.335 110.212L600.398 120.516H597.095Z" fill="white"/>
<path d="M616.331 120.516V117.438H619.734V120.516H616.331Z" fill="white"/>
<path d="M624.134 120.965C623.667 120.965 623.233 120.919 622.833 120.827C622.455 120.758 622.177 120.712 621.999 120.689L622.333 118.199C622.533 118.222 622.844 118.268 623.267 118.337C623.689 118.407 624.156 118.441 624.668 118.441C625.135 118.441 625.524 118.337 625.835 118.13C626.147 117.899 626.38 117.381 626.536 116.574C626.714 115.767 626.803 114.511 626.803 112.805V96.4841H629.605V112.355C629.605 114.499 629.36 116.205 628.871 117.473C628.404 118.718 627.759 119.617 626.936 120.17C626.113 120.7 625.179 120.965 624.134 120.965Z" fill="white"/>
<path d="M641.028 121C640.116 121 639.237 120.885 638.392 120.654C637.547 120.447 636.791 120.193 636.124 119.893C635.479 119.594 634.967 119.34 634.589 119.133C634.211 118.902 634.022 118.787 634.022 118.787C634.022 118.787 634.067 118.672 634.156 118.441C634.267 118.188 634.389 117.911 634.523 117.611C634.656 117.289 634.767 117.012 634.856 116.781C634.967 116.551 635.023 116.436 635.023 116.436C635.023 116.436 635.201 116.539 635.557 116.747C635.935 116.931 636.435 117.15 637.058 117.404C637.681 117.634 638.392 117.853 639.193 118.061C639.994 118.245 640.828 118.337 641.695 118.337C642.251 118.337 642.685 118.291 642.996 118.199C643.33 118.084 643.563 117.98 643.697 117.888C644.141 117.565 644.486 117.127 644.731 116.574C644.975 115.998 645.098 115.26 645.098 114.361C645.098 113.485 644.92 112.759 644.564 112.183C644.208 111.606 643.73 111.122 643.129 110.73C642.551 110.338 641.917 109.993 641.228 109.693C640.338 109.301 639.504 108.909 638.726 108.517C637.947 108.125 637.258 107.676 636.658 107.169C636.057 106.662 635.59 106.028 635.256 105.267C634.923 104.483 634.756 103.515 634.756 102.362C634.756 101.164 635.012 100.092 635.523 99.1466C636.035 98.1784 636.802 97.4177 637.825 96.8645C638.848 96.2882 640.116 96 641.628 96C642.607 96 643.508 96.0692 644.33 96.2075C645.153 96.3227 645.809 96.4495 646.299 96.5878C646.81 96.7031 647.066 96.7607 647.066 96.7607L646.599 99.2503C646.599 99.2503 646.321 99.2042 645.765 99.112C645.231 98.9968 644.542 98.893 643.697 98.8008C642.851 98.6856 641.962 98.6279 641.028 98.6279C640.472 98.6279 640.027 98.6625 639.693 98.7317C639.382 98.8008 639.104 98.9161 638.859 99.0775C638.57 99.2388 638.292 99.5731 638.025 100.08C637.781 100.564 637.658 101.233 637.658 102.086C637.658 103.031 637.892 103.803 638.359 104.402C638.826 105.002 639.438 105.497 640.194 105.889C640.95 106.258 641.751 106.627 642.596 106.996C643.485 107.365 644.342 107.814 645.164 108.344C645.987 108.852 646.666 109.543 647.199 110.419C647.733 111.295 648 112.482 648 113.981C648 115.387 647.7 116.62 647.099 117.68C646.521 118.718 645.709 119.536 644.664 120.136C643.619 120.712 642.407 121 641.028 121Z" fill="white"/>
<circle cx="457.5" cy="108.5" r="12.5" fill="#C0008A" stroke="white" stroke-width="2"/>
<g filter="url(#filter3_d)">
<rect x="167" y="275" width="174" height="69" rx="13" fill="#6D0093"/>
</g>
<path d="M260.388 301.809C260.388 302.878 259.511 303.831 258.366 303.831C257.488 303.831 256.725 304.06 256.076 304.557C255.351 305.015 254.779 305.663 254.321 306.388C253.405 307.609 252.948 309.059 252.757 309.593V316.842C252.757 317.949 251.803 318.865 250.658 318.865C249.552 318.865 248.636 317.949 248.636 316.842V301.809C248.636 300.703 249.552 299.825 250.658 299.825C251.803 299.825 252.757 300.703 252.757 301.809V302.076C252.986 301.809 253.291 301.504 253.558 301.313C254.817 300.474 256.458 299.787 258.366 299.825C259.511 299.825 260.388 300.703 260.388 301.809Z" fill="white"/>
<path d="M259.269 309.326C259.308 304.137 263.352 299.788 268.58 299.788C273.54 299.788 277.47 303.489 277.776 308.639V308.83C277.776 308.906 277.776 309.097 277.738 309.173C277.623 310.089 276.822 310.7 275.753 310.7H263.619C263.81 311.578 264.23 312.569 264.917 313.218C265.718 314.134 267.245 314.82 268.58 314.935C269.953 315.049 271.594 314.706 272.548 313.981C273.349 313.141 274.914 313.256 275.41 313.866C275.906 314.401 276.288 315.545 275.41 316.346C273.54 318.063 271.289 318.864 268.579 318.864C263.352 318.827 259.308 314.515 259.269 309.326ZM263.429 307.457H274.227C273.846 305.931 271.9 303.68 268.58 303.412C265.337 303.565 263.734 305.892 263.429 307.457Z" fill="white"/>
<path d="M297.215 316.805C297.215 317.912 296.299 318.865 295.155 318.865C294.124 318.865 293.323 318.141 293.132 317.225C291.682 318.217 289.851 318.865 287.943 318.865C282.792 318.865 278.671 314.516 278.671 309.365C278.671 304.138 282.792 299.788 287.943 299.788C289.813 299.788 291.644 300.398 293.056 301.39V294.217C293.056 293.111 293.972 292.157 295.154 292.157C296.299 292.157 297.215 293.111 297.215 294.217V309.327V309.365V316.805H297.215ZM287.943 303.947C286.57 303.947 285.31 304.519 284.357 305.511C283.403 306.465 282.83 307.838 282.83 309.365C282.83 310.814 283.402 312.188 284.357 313.142C285.31 314.134 286.57 314.706 287.943 314.706C289.355 314.706 290.576 314.134 291.53 313.142C292.484 312.188 293.056 310.814 293.056 309.365C293.056 307.838 292.484 306.465 291.53 305.511C290.576 304.519 289.355 303.947 287.943 303.947Z" fill="white"/>
<path d="M304.476 295.018C304.476 296.163 303.599 297.117 302.416 297.117C301.271 297.117 300.355 296.163 300.355 295.018V294.217C300.355 293.072 301.271 292.156 302.416 292.156C303.599 292.156 304.476 293.072 304.476 294.217V295.018ZM304.476 301.924V316.805C304.476 317.949 303.599 318.865 302.416 318.865C301.271 318.865 300.355 317.949 300.355 316.805V301.924C300.355 300.703 301.271 299.826 302.416 299.826C303.599 299.826 304.476 300.703 304.476 301.924Z" fill="white"/>
<path d="M307.098 313.407C307.785 312.491 309.121 312.377 309.96 313.102C310.952 313.941 312.67 314.818 314.158 314.78C315.188 314.78 316.142 314.437 316.752 314.056C317.287 313.598 317.439 313.216 317.439 312.911C317.439 312.72 317.401 312.644 317.325 312.529C317.286 312.415 317.134 312.262 316.828 312.072C316.294 311.69 315.149 311.27 313.776 311.003H313.738C312.555 310.774 311.41 310.469 310.418 310.011C309.388 309.515 308.472 308.828 307.785 307.798C307.365 307.112 307.137 306.272 307.137 305.395C307.137 303.639 308.129 302.151 309.388 301.197C310.723 300.282 312.326 299.786 314.081 299.786C316.714 299.786 318.584 301.045 319.805 301.884C320.721 302.495 320.988 303.754 320.415 304.707C319.805 305.623 318.546 305.89 317.592 305.242C316.371 304.441 315.302 303.83 314.081 303.83C313.127 303.83 312.288 304.135 311.792 304.517C311.296 304.86 311.182 305.204 311.182 305.394C311.182 305.547 311.182 305.585 311.258 305.699C311.296 305.776 311.41 305.928 311.678 306.081C312.174 306.424 313.166 306.768 314.463 306.997L314.501 307.035H314.54C315.799 307.264 316.982 307.607 318.088 308.141C319.119 308.599 320.149 309.324 320.798 310.392C321.256 311.155 321.523 312.033 321.523 312.911C321.523 314.78 320.492 316.345 319.119 317.336C317.745 318.29 316.028 318.863 314.158 318.863C311.182 318.825 308.892 317.451 307.366 316.23C306.526 315.544 306.412 314.246 307.098 313.407Z" fill="white"/>
<path d="M234.738 321.671C232.057 323.068 218.171 328.777 215.215 330.318C212.258 331.859 210.616 331.844 208.281 330.728C205.945 329.612 191.168 323.643 188.506 322.371C187.175 321.735 186.476 321.198 186.476 320.691V315.614C186.476 315.614 205.714 311.427 208.82 310.313C211.926 309.198 213.003 309.158 215.646 310.126C218.29 311.094 234.093 313.946 236.706 314.902C236.706 314.902 236.705 319.437 236.705 319.907C236.705 320.409 236.102 320.96 234.738 321.671Z" fill="#A41E11"/>
<path d="M234.738 316.592C232.057 317.989 218.171 323.699 215.215 325.239C212.258 326.781 210.616 326.766 208.281 325.65C205.945 324.534 191.168 318.564 188.506 317.292C185.844 316.02 185.788 315.144 188.403 314.121C191.018 313.097 205.714 307.331 208.82 306.217C211.926 305.103 213.004 305.062 215.647 306.031C218.29 306.999 232.093 312.493 234.705 313.449C237.318 314.407 237.418 315.195 234.738 316.592Z" fill="#D82C20"/>
<path d="M234.738 313.392C232.057 314.789 218.171 320.498 215.215 322.04C212.258 323.58 210.616 323.565 208.281 322.449C205.945 321.333 191.168 315.364 188.506 314.092C187.175 313.456 186.476 312.92 186.476 312.413V307.336C186.476 307.336 205.714 303.148 208.82 302.034C211.926 300.92 213.003 300.879 215.646 301.848C218.29 302.816 234.093 305.666 236.706 306.623C236.706 306.623 236.705 311.157 236.705 311.629C236.705 312.13 236.102 312.681 234.738 313.392Z" fill="#A41E11"/>
<path d="M234.738 308.314C232.057 309.711 218.171 315.42 215.215 316.961C212.258 318.502 210.616 318.487 208.281 317.371C205.945 316.255 191.168 310.286 188.506 309.014C185.844 307.742 185.788 306.866 188.403 305.842C191.018 304.818 205.714 299.052 208.82 297.938C211.926 296.824 213.004 296.784 215.647 297.752C218.29 298.72 232.093 304.214 234.705 305.171C237.318 306.128 237.418 306.916 234.738 308.314Z" fill="#D82C20"/>
<path d="M234.738 304.806C232.057 306.203 218.171 311.912 215.215 313.454C212.258 314.995 210.616 314.98 208.281 313.863C205.945 312.748 191.168 306.778 188.506 305.506C187.175 304.87 186.476 304.334 186.476 303.828V298.75C186.476 298.75 205.714 294.562 208.82 293.449C211.926 292.334 213.003 292.294 215.646 293.262C218.29 294.23 234.093 297.081 236.706 298.038C236.706 298.038 236.705 302.572 236.705 303.043C236.705 303.544 236.102 304.095 234.738 304.806Z" fill="#A41E11"/>
<path d="M234.738 299.728C232.057 301.125 218.171 306.834 215.215 308.375C212.258 309.916 210.616 309.901 208.281 308.785C205.945 307.669 191.168 301.7 188.506 300.428C185.844 299.156 185.788 298.28 188.403 297.256C191.018 296.232 205.714 290.467 208.82 289.353C211.926 288.238 213.004 288.198 215.647 289.167C218.29 290.135 232.093 295.628 234.705 296.585C237.318 297.542 237.418 298.331 234.738 299.728Z" fill="#D82C20"/>
<path d="M218.173 294.838L213.82 295.29L212.846 297.634L211.272 295.018L206.246 294.567L209.996 293.214L208.871 291.139L212.382 292.512L215.692 291.428L214.798 293.575L218.173 294.838Z" fill="white"/>
<path d="M212.586 306.211L204.463 302.843L216.103 301.056L212.586 306.211Z" fill="white"/>
<path d="M201.324 300.964C204.76 300.964 207.545 299.884 207.545 298.553C207.545 297.221 204.76 296.141 201.324 296.141C197.888 296.141 195.103 297.221 195.103 298.553C195.103 299.884 197.888 300.964 201.324 300.964Z" fill="white"/>
<path d="M223.316 295.479L230.205 298.201L223.322 300.92L223.316 295.479Z" fill="#7A0C00"/>
<path d="M215.695 298.494L223.316 295.479L223.322 300.92L222.575 301.213L215.695 298.494Z" fill="#AD2115"/>
<circle cx="341.5" cy="309.5" r="12.5" fill="#C0008A" stroke="white" stroke-width="2"/>
<defs>
<filter id="filter0_d" x="0" y="207" width="236" height="95" filterUnits="userSpaceOnUse" color-interpolation-filters="sRGB">
<feFlood flood-opacity="0" result="BackgroundImageFix"/>
<feColorMatrix in="SourceAlpha" type="matrix" values="0 0 0 0 0 0 0 0 0 0 0 0 0 0 0 0 0 0 127 0" result="hardAlpha"/>
<feMorphology radius="6" operator="erode" in="SourceAlpha" result="effect1_dropShadow"/>
<feOffset dy="11"/>
<feGaussianBlur stdDeviation="9.5"/>
<feComposite in2="hardAlpha" operator="out"/>
<feColorMatrix type="matrix" values="0 0 0 0 0 0 0 0 0 0 0 0 0 0 0 0 0 0 0.65 0"/>
<feBlend mode="normal" in2="BackgroundImageFix" result="effect1_dropShadow"/>
<feBlend mode="normal" in="SourceGraphic" in2="effect1_dropShadow" result="shape"/>
</filter>
<filter id="filter1_d" x="179" y="1" width="176" height="95" filterUnits="userSpaceOnUse" color-interpolation-filters="sRGB">
<feFlood flood-opacity="0" result="BackgroundImageFix"/>
<feColorMatrix in="SourceAlpha" type="matrix" values="0 0 0 0 0 0 0 0 0 0 0 0 0 0 0 0 0 0 127 0" result="hardAlpha"/>
<feMorphology radius="6" operator="erode" in="SourceAlpha" result="effect1_dropShadow"/>
<feOffset dy="11"/>
<feGaussianBlur stdDeviation="9.5"/>
<feComposite in2="hardAlpha" operator="out"/>
<feColorMatrix type="matrix" values="0 0 0 0 0 0 0 0 0 0 0 0 0 0 0 0 0 0 0.3 0"/>
<feBlend mode="normal" in2="BackgroundImageFix" result="effect1_dropShadow"/>
<feBlend mode="normal" in="SourceGraphic" in2="effect1_dropShadow" result="shape"/>
</filter>
<filter id="filter2_d" x="444" y="72" width="236" height="95" filterUnits="userSpaceOnUse" color-interpolation-filters="sRGB">
<feFlood flood-opacity="0" result="BackgroundImageFix"/>
<feColorMatrix in="SourceAlpha" type="matrix" values="0 0 0 0 0 0 0 0 0 0 0 0 0 0 0 0 0 0 127 0" result="hardAlpha"/>
<feMorphology radius="6" operator="erode" in="SourceAlpha" result="effect1_dropShadow"/>
<feOffset dy="11"/>
<feGaussianBlur stdDeviation="9.5"/>
<feComposite in2="hardAlpha" operator="out"/>
<feColorMatrix type="matrix" values="0 0 0 0 0.559686 0 0 0 0 0.14902 0 0 0 0 0.882353 0 0 0 0.65 0"/>
<feBlend mode="normal" in2="BackgroundImageFix" result="effect1_dropShadow"/>
<feBlend mode="normal" in="SourceGraphic" in2="effect1_dropShadow" result="shape"/>
</filter>
<filter id="filter3_d" x="154" y="273" width="200" height="95" filterUnits="userSpaceOnUse" color-interpolation-filters="sRGB">
<feFlood flood-opacity="0" result="BackgroundImageFix"/>
<feColorMatrix in="SourceAlpha" type="matrix" values="0 0 0 0 0 0 0 0 0 0 0 0 0 0 0 0 0 0 127 0" result="hardAlpha"/>
<feMorphology radius="6" operator="erode" in="SourceAlpha" result="effect1_dropShadow"/>
<feOffset dy="11"/>
<feGaussianBlur stdDeviation="9.5"/>
<feComposite in2="hardAlpha" operator="out"/>
<feColorMatrix type="matrix" values="0 0 0 0 0.659451 0 0 0 0 0.12549 0 0 0 0 0.847059 0 0 0 0.6 0"/>
<feBlend mode="normal" in2="BackgroundImageFix" result="effect1_dropShadow"/>
<feBlend mode="normal" in="SourceGraphic" in2="effect1_dropShadow" result="shape"/>
</filter>
</defs>
</svg>
