<svg width="680" height="456" viewBox="0 0 680 456" fill="none" xmlns="http://www.w3.org/2000/svg">
  <ellipse cx="297" cy="270.5" rx="188" ry="183.5" stroke="#CCC" stroke-width="3" stroke-miterlimit="3.999" stroke-linecap="round" stroke-linejoin="round" stroke-dasharray="0.5 10"/>
  <circle cx="297" cy="271" r="135" fill="#F0F0F0"/>
  <g filter="url(#a)">
    <rect x="13" y="209" width="210" height="69" rx="13" fill="#000"/>
  </g>
  <path fill-rule="evenodd" clip-rule="evenodd" d="M108.883 231v22.143c0 4.871-3.997 8.857-8.883 8.857v-4.429a4.408 4.408 0 0 0 4.442-4.428V231h4.441Zm81.092 4.429H200V231h-24.429v4.429h9.962V262h4.442v-26.571ZM162.183 231v22.143a4.408 4.408 0 0 1-4.442 4.428 4.408 4.408 0 0 1-4.442-4.428v-13.286c0-4.871-3.997-8.857-8.883-8.857-4.886 0-8.883 3.986-8.883 8.857v13.286a4.408 4.408 0 0 1-4.442 4.428 4.407 4.407 0 0 1-4.441-4.428V231h-4.442v22.143c0 4.871 3.998 8.857 8.883 8.857 4.886 0 8.884-3.986 8.884-8.857v-13.286a4.407 4.407 0 0 1 4.441-4.428 4.408 4.408 0 0 1 4.442 4.428v13.286c0 4.871 3.997 8.857 8.883 8.857 4.886 0 8.883-3.986 8.883-8.857V231h-4.441ZM59.665 230.84 59.61 216h-8.275l.055 14.84 4.138 5.682 4.137-5.682ZM51.39 256.271v14.894h8.275v-14.894l-4.137-5.682-4.138 5.682Z" fill="#fff"/>
  <path fill-rule="evenodd" clip-rule="evenodd" d="m59.665 256.271 8.716 12.026 6.675-4.855-8.716-12.026-6.675-2.151v7.006ZM51.39 230.84l-8.771-12.027-6.675 4.855 8.716 12.026 6.73 2.152v-7.006Z" fill="#00F2E6"/>
  <path fill-rule="evenodd" clip-rule="evenodd" d="m44.66 235.694-14.122-4.579L28 238.949l14.122 4.634 6.675-2.207-4.137-5.682ZM62.203 245.734l4.137 5.682 14.122 4.579L83 248.161l-14.122-4.578-6.675 2.151Z" fill="#00B9F1"/>
  <path fill-rule="evenodd" clip-rule="evenodd" d="M68.878 243.583 83 238.949l-2.538-7.834-14.122 4.579-4.137 5.682 6.675 2.207ZM42.122 243.583 28 248.161l2.538 7.834 14.122-4.579 4.137-5.682-6.675-2.151Z" fill="#D63AFF"/>
  <path fill-rule="evenodd" clip-rule="evenodd" d="m44.66 251.416-8.716 12.026 6.675 4.855 8.771-12.026v-7.006l-6.73 2.151ZM66.34 235.694l8.716-12.026-6.675-4.855-8.716 12.027v7.006l6.675-2.152Z" fill="#FB015B"/>
  <circle cx="223.5" cy="243.5" r="12.5" fill="#C0008A" stroke="#fff" stroke-width="2"/>
  <circle cx="455.5" cy="242.5" r="12.5" fill="#C0008A" stroke="#fff" stroke-width="2"/>
  <circle cx="225.5" cy="109.5" r="12.5" fill="#C0008A" stroke="#fff" stroke-width="2"/>
  <path d="m342.432 39.251-119 205m232.57-.751-233 1M342.438 38.759l113 205M222.002 244.825l-.013.902.79.434 118.338 65.086.744.409.733-.428 113.651-66.213.732-.427.012-.847 2.007-135.439.013-.861-.738-.445-115.136-69.479-.774-.467-.774.466-116.862 70.315-.714.43-.012.834-1.997 135.73Z" stroke="#C0008A" stroke-width="3"/>
  <g filter="url(#b)">
    <rect x="192" y="3" width="150" height="69" rx="13" fill="#000"/>
  </g>
  <circle cx="342.5" cy="39.5" r="12.5" fill="#C0008A" stroke="#fff" stroke-width="2"/>
  <path d="M225.75 31.4h-5.5v-2.8h5.5v2.8Zm8.25-5.6v22.4c0 1.554-1.224 2.8-2.75 2.8h-16.5c-1.526 0-2.75-1.246-2.75-2.8V25.8c0-.743.29-1.455.805-1.98a2.727 2.727 0 0 1 1.945-.82h16.5c1.526 0 2.75 1.26 2.75 2.8Zm-2.75 12.6h-16.5v9.8h16.5v-9.8Zm0-12.6h-16.5v9.8h16.5v-9.8Zm-5.5 15.4h-5.5V44h5.5v-2.8ZM256.435 48h-2.491V26.584h11.939v2.212h-9.448v7.837h8.877v2.212h-8.877V48Zm15.073 0h-2.432V31.945h2.432V48Zm-2.637-20.405c0-.557.137-.962.41-1.216.274-.264.615-.396 1.026-.396.39 0 .727.132 1.01.396.284.264.425.669.425 1.216 0 .547-.141.957-.425 1.23-.283.264-.62.396-1.01.396-.411 0-.752-.132-1.026-.396-.273-.273-.41-.683-.41-1.23ZM279.096 48h-2.432V25.207h2.432V48Zm11.938.293c-2.373 0-4.248-.723-5.625-2.168-1.367-1.445-2.051-3.452-2.051-6.02 0-2.588.635-4.644 1.905-6.167 1.279-1.524 2.993-2.286 5.141-2.286 2.012 0 3.604.664 4.776 1.992 1.172 1.319 1.758 3.062 1.758 5.23v1.538h-11.06c.049 1.885.522 3.316 1.421 4.292.908.977 2.182 1.465 3.823 1.465 1.729 0 3.438-.361 5.127-1.084v2.168c-.859.371-1.675.635-2.446.79-.762.167-1.685.25-2.769.25Zm-.659-14.605c-1.289 0-2.319.42-3.091 1.26-.762.84-1.211 2.002-1.347 3.487h8.393c0-1.534-.342-2.706-1.025-3.516-.684-.82-1.66-1.23-2.93-1.23Zm21.079 9.932c0 1.494-.557 2.647-1.67 3.457s-2.676 1.216-4.687 1.216c-2.129 0-3.789-.337-4.981-1.01v-2.257c.772.391 1.597.699 2.476.923a10.45 10.45 0 0 0 2.563.337c1.27 0 2.246-.2 2.93-.6.684-.41 1.025-1.03 1.025-1.86 0-.626-.273-1.158-.82-1.598-.537-.449-1.592-.976-3.164-1.581-1.494-.557-2.559-1.04-3.193-1.45-.625-.42-1.094-.894-1.407-1.422-.302-.527-.454-1.157-.454-1.89 0-1.308.532-2.338 1.597-3.09 1.064-.762 2.524-1.143 4.38-1.143 1.728 0 3.418.352 5.068 1.055l-.864 1.978c-1.611-.665-3.071-.997-4.38-.997-1.152 0-2.021.181-2.607.542-.586.362-.879.86-.879 1.495 0 .43.107.795.322 1.098.225.303.581.591 1.069.864.489.274 1.426.67 2.813 1.187 1.904.693 3.188 1.392 3.852 2.095.674.703 1.011 1.587 1.011 2.651Z" fill="#fff"/>
  <g filter="url(#c)">
    <rect x="457" y="74" width="210" height="69" rx="13" fill="#6D0093"/>
  </g>
  <path d="m476.295 111.404 6.524-3.151-6.18-2.891c-.48-.224-.761-.817-.43-1.37l.643-.744c.414-.453.864-.783 1.411-.568l4.591 1.731a.511.511 0 0 0 .314.013l1.777-.504a.39.39 0 0 1 .373.092l1.901 1.805a15.437 15.437 0 0 1 2.845-6.598l-2.779-.022a.332.332 0 0 1-.288-.172l-.984-1.784a.473.473 0 0 0-.229-.207l-4.548-1.94c-.28-.119-.451-.7-.398-1.075l.148-1.359c.121-.39.669-.733.931-.636l6.841 2.384-2.326-6.413c-.18-.498.04-1.116.665-1.273l.98-.072c.614-.027 1.166.057 1.4.596l2.023 4.47a.504.504 0 0 0 .212.232l1.613.9c.12.067.195.192.199.329l.068 2.621a15.425 15.425 0 0 1 6.679-2.653l-1.952-1.982a.332.332 0 0 1-.082-.325l.567-1.957a.475.475 0 0 0-.016-.31l-1.845-4.586c-.113-.282.175-.814.48-1.042l1.065-.856c.361-.19.991-.046 1.108.208l3.151 6.524 2.891-6.18c.224-.48.817-.761 1.37-.43l.744.643c.453.414.783.864.568 1.411l-1.73 4.591a.501.501 0 0 0-.014.314l.504 1.777a.39.39 0 0 1-.092.373l-1.805 1.901a15.439 15.439 0 0 1 6.598 2.845l.022-2.78a.333.333 0 0 1 .171-.287l1.785-.984a.476.476 0 0 0 .208-.23l1.939-4.547c.119-.28.699-.452 1.076-.398l1.358.148c.389.121.733.669.636.93l-2.385 6.842 6.414-2.326c.498-.18 1.116.04 1.273.665l.072.98c.027.614-.057 1.166-.596 1.4l-4.471 2.023a.509.509 0 0 0-.231.212l-.901 1.613a.386.386 0 0 1-.328.199l-2.621.068a15.424 15.424 0 0 1 2.653 6.679l1.982-1.952a.333.333 0 0 1 .325-.082l1.957.566c.102.03.211.024.309-.015l4.587-1.845c.282-.113.814.176 1.042.48l.856 1.065c.19.361.045.991-.208 1.108l-6.524 3.151 6.18 2.891c.48.224.761.817.43 1.37l-.643.744c-.414.453-.864.783-1.411.568l-4.592-1.731a.507.507 0 0 0-.313-.013l-1.777.504a.39.39 0 0 1-.373-.092l-1.901-1.805a15.433 15.433 0 0 1-2.845 6.598l2.779.022c.12.001.23.067.288.172l.984 1.784a.477.477 0 0 0 .229.208l4.548 1.939c.28.119.452.699.398 1.075l-.148 1.359c-.121.39-.669.733-.931.636l-6.841-2.384 2.326 6.413c.18.498-.04 1.116-.665 1.273l-.98.071c-.614.028-1.166-.056-1.4-.595l-2.023-4.471a.51.51 0 0 0-.212-.231l-1.613-.9a.39.39 0 0 1-.199-.329l-.068-2.621a15.425 15.425 0 0 1-6.679 2.653l1.952 1.982c.084.086.115.21.082.325l-.567 1.957a.481.481 0 0 0 .016.309l1.845 4.587c.113.282-.176.814-.48 1.042l-1.065.856c-.361.19-.991.046-1.108-.208l-3.151-6.524-2.891 6.18c-.225.48-.817.761-1.37.43l-.743-.643c-.454-.414-.785-.864-.569-1.411l1.73-4.591a.504.504 0 0 0 .014-.314l-.504-1.777a.39.39 0 0 1 .092-.373l1.805-1.901a15.433 15.433 0 0 1-6.598-2.845l-.022 2.78a.332.332 0 0 1-.172.287l-1.784.984a.477.477 0 0 0-.208.229l-1.939 4.548c-.119.28-.699.452-1.076.398l-1.357-.148c-.391-.121-.734-.669-.637-.931l2.384-6.841-6.413 2.326c-.498.18-1.116-.04-1.273-.665l-.072-.98c-.027-.614.058-1.166.596-1.4l4.471-2.023a.515.515 0 0 0 .231-.212l.9-1.613a.39.39 0 0 1 .329-.199l2.621-.068a15.425 15.425 0 0 1-2.653-6.679l-1.982 1.952a.333.333 0 0 1-.325.082l-1.957-.566a.475.475 0 0 0-.309.015l-4.587 1.845c-.282.113-.814-.176-1.042-.48l-.856-1.065c-.19-.361-.046-.991.208-1.108Zm15.08-4.634h3.299a7.973 7.973 0 0 1 1.336-2.971l-2.312-2.313a11.207 11.207 0 0 0-2.323 5.284Zm6.816-5.026a7.963 7.963 0 0 1 3.045-1.159v-3.27a11.192 11.192 0 0 0-5.377 2.097l2.332 2.332Zm.401 6.756a3.908 3.908 0 1 0 7.817 0 3.908 3.908 0 0 0-7.817 0Zm5.638-11.125v3.299a7.973 7.973 0 0 1 2.971 1.336l2.313-2.312a11.207 11.207 0 0 0-5.284-2.323Zm5.027 6.816a7.963 7.963 0 0 1 1.158 3.044h3.27a11.204 11.204 0 0 0-2.097-5.376l-2.331 2.332Zm4.368 6.039h-3.299a7.973 7.973 0 0 1-1.336 2.971l2.312 2.313a11.207 11.207 0 0 0 2.323-5.284Zm-6.816 5.026a7.964 7.964 0 0 1-3.044 1.159v3.27a11.204 11.204 0 0 0 5.376-2.097l-2.332-2.332Zm-6.04 4.369v-3.299a7.969 7.969 0 0 1-2.97-1.336l-2.313 2.312a11.212 11.212 0 0 0 5.283 2.323Zm-5.026-6.816a7.98 7.98 0 0 1-1.158-3.044h-3.27a11.204 11.204 0 0 0 2.097 5.376l2.331-2.332ZM553.677 120.516l-9.775-12.344 8.941-11.688h3.536l-9.174 11.445v.208l10.208 12.379h-3.736Zm-12.677 0 .1-12.206-.1-11.826h2.802v24.032H541ZM560.254 120.516V96.484h3.769l9.441 20.54h.1l-.433-20.54h2.802v24.032h-3.77l-9.441-20.54h-.1l.434 20.54h-2.802ZM582.928 120.516V96.484h11.376v2.559l-8.574-.104-.166 8.126h7.939v2.455h-7.939l.166 8.506 8.574-.069v2.559h-11.376ZM597.095 120.516l6.806-12.829-6.339-11.203h3.136l4.737 9.129 4.838-9.129h3.135l-6.572 11.48 7.073 12.552h-3.303l-5.271-10.304-4.937 10.304h-3.303ZM616.331 120.516v-3.078h3.403v3.078h-3.403ZM624.134 120.965c-.467 0-.901-.046-1.301-.138a18.092 18.092 0 0 0-.834-.138l.334-2.49c.2.023.511.069.934.138a8.6 8.6 0 0 0 1.401.104c.467 0 .856-.104 1.167-.311.312-.231.545-.749.701-1.556.178-.807.267-2.063.267-3.769v-16.32h2.802v15.87c0 2.144-.245 3.85-.734 5.118-.467 1.245-1.112 2.144-1.935 2.697-.823.53-1.757.795-2.802.795ZM641.028 121a9.953 9.953 0 0 1-2.636-.346 13.177 13.177 0 0 1-2.268-.761 26.747 26.747 0 0 1-1.535-.76l-.567-.346.134-.346c.111-.253.233-.53.367-.83.133-.322.244-.599.333-.83l.167-.345.534.311c.378.184.878.403 1.501.657.623.23 1.334.449 2.135.657.801.184 1.635.276 2.502.276.556 0 .99-.046 1.301-.138.334-.115.567-.219.701-.311a3.175 3.175 0 0 0 1.034-1.314c.244-.576.367-1.314.367-2.213 0-.876-.178-1.602-.534-2.178a4.624 4.624 0 0 0-1.435-1.453 11.693 11.693 0 0 0-1.901-1.037 53.443 53.443 0 0 1-2.502-1.176 10.495 10.495 0 0 1-2.068-1.348 5.158 5.158 0 0 1-1.402-1.902c-.333-.784-.5-1.752-.5-2.905 0-1.198.256-2.27.767-3.215.512-.969 1.279-1.73 2.302-2.282 1.023-.577 2.291-.865 3.803-.865.979 0 1.88.07 2.702.207.823.116 1.479.243 1.969.38l.767.174-.467 2.49-.834-.139a20.883 20.883 0 0 0-2.068-.311 19.777 19.777 0 0 0-2.669-.173c-.556 0-1.001.034-1.335.104-.311.069-.589.184-.834.346-.289.16-.567.495-.834 1.002-.244.484-.367 1.153-.367 2.006 0 .945.234 1.717.701 2.316.467.6 1.079 1.095 1.835 1.487.756.369 1.557.738 2.402 1.107.889.369 1.746.818 2.568 1.348a6.145 6.145 0 0 1 2.035 2.075c.534.876.801 2.063.801 3.562 0 1.406-.3 2.639-.901 3.699a6.35 6.35 0 0 1-2.435 2.456c-1.045.576-2.257.864-3.636.864Z" fill="#fff"/>
  <circle cx="457.5" cy="108.5" r="12.5" fill="#C0008A" stroke="#fff" stroke-width="2"/>
  <g filter="url(#d)">
    <rect x="167" y="275" width="174" height="69" rx="13" fill="#6D0093"/>
  </g>
  <path d="M260.388 301.809c0 1.069-.877 2.022-2.022 2.022-.878 0-1.641.229-2.29.726-.725.458-1.297 1.106-1.755 1.831-.916 1.221-1.373 2.671-1.564 3.205v7.249c0 1.107-.954 2.023-2.099 2.023a2.036 2.036 0 0 1-2.022-2.023v-15.033c0-1.106.916-1.984 2.022-1.984 1.145 0 2.099.878 2.099 1.984v.267c.229-.267.534-.572.801-.763 1.259-.839 2.9-1.526 4.808-1.488 1.145 0 2.022.878 2.022 1.984ZM259.269 309.326c.039-5.189 4.083-9.538 9.311-9.538 4.96 0 8.89 3.701 9.196 8.851v.191c0 .076 0 .267-.038.343-.115.916-.916 1.527-1.985 1.527h-12.134c.191.878.611 1.869 1.298 2.518.801.916 2.328 1.602 3.663 1.717 1.373.114 3.014-.229 3.968-.954.801-.84 2.366-.725 2.862-.115.496.535.878 1.679 0 2.48-1.87 1.717-4.121 2.518-6.831 2.518-5.227-.037-9.271-4.349-9.31-9.538Zm4.16-1.869h10.798c-.381-1.526-2.327-3.777-5.647-4.045-3.243.153-4.846 2.48-5.151 4.045ZM297.215 316.805c0 1.107-.916 2.06-2.06 2.06a2.054 2.054 0 0 1-2.023-1.64c-1.45.992-3.281 1.64-5.189 1.64-5.151 0-9.272-4.349-9.272-9.5 0-5.227 4.121-9.577 9.272-9.577 1.87 0 3.701.61 5.113 1.602v-7.173c0-1.106.916-2.06 2.098-2.06 1.145 0 2.061.954 2.061 2.06v22.588Zm-9.272-12.858c-1.373 0-2.633.572-3.586 1.564-.954.954-1.527 2.327-1.527 3.854 0 1.449.572 2.823 1.527 3.777.953.992 2.213 1.564 3.586 1.564 1.412 0 2.633-.572 3.587-1.564.954-.954 1.526-2.328 1.526-3.777 0-1.527-.572-2.9-1.526-3.854-.954-.992-2.175-1.564-3.587-1.564ZM304.476 295.018c0 1.145-.877 2.099-2.06 2.099-1.145 0-2.061-.954-2.061-2.099v-.801c0-1.145.916-2.061 2.061-2.061 1.183 0 2.06.916 2.06 2.061v.801Zm0 6.906v14.881c0 1.144-.877 2.06-2.06 2.06a2.052 2.052 0 0 1-2.061-2.06v-14.881c0-1.221.916-2.098 2.061-2.098 1.183 0 2.06.877 2.06 2.098ZM307.098 313.407c.687-.916 2.023-1.03 2.862-.305.992.839 2.71 1.716 4.198 1.678 1.03 0 1.984-.343 2.594-.724.535-.458.687-.84.687-1.145a.573.573 0 0 0-.114-.382c-.039-.114-.191-.267-.497-.457-.534-.382-1.679-.802-3.052-1.069h-.038c-1.183-.229-2.328-.534-3.32-.992-1.03-.496-1.946-1.183-2.633-2.213-.42-.686-.648-1.526-.648-2.403 0-1.756.992-3.244 2.251-4.198 1.335-.915 2.938-1.411 4.693-1.411 2.633 0 4.503 1.259 5.724 2.098.916.611 1.183 1.87.61 2.823a2.02 2.02 0 0 1-2.823.535c-1.221-.801-2.29-1.412-3.511-1.412-.954 0-1.793.305-2.289.687-.496.343-.61.687-.61.877 0 .153 0 .191.076.305.038.077.152.229.42.382.496.343 1.488.687 2.785.916l.038.038h.039c1.259.229 2.442.572 3.548 1.106 1.031.458 2.061 1.183 2.71 2.251.458.763.725 1.641.725 2.519 0 1.869-1.031 3.434-2.404 4.425a8.683 8.683 0 0 1-4.961 1.527c-2.976-.038-5.266-1.412-6.792-2.633-.84-.686-.954-1.984-.268-2.823Z" fill="#fff"/>
  <path d="M234.738 321.671c-2.681 1.397-16.567 7.106-19.523 8.647-2.957 1.541-4.599 1.526-6.934.41-2.336-1.116-17.113-7.085-19.775-8.357-1.331-.636-2.03-1.173-2.03-1.68v-5.077s19.238-4.187 22.344-5.301c3.106-1.115 4.183-1.155 6.826-.187 2.644.968 18.447 3.82 21.06 4.776l-.001 5.005c0 .502-.603 1.053-1.967 1.764Z" fill="#A41E11"/>
  <path d="M234.738 316.592c-2.681 1.397-16.567 7.107-19.523 8.647-2.957 1.542-4.599 1.527-6.934.411-2.336-1.116-17.113-7.086-19.775-8.358-2.662-1.272-2.718-2.148-.103-3.171 2.615-1.024 17.311-6.79 20.417-7.904 3.106-1.114 4.184-1.155 6.827-.186 2.643.968 16.446 6.462 19.058 7.418 2.613.958 2.713 1.746.033 3.143Z" fill="#D82C20"/>
  <path d="M234.738 313.392c-2.681 1.397-16.567 7.106-19.523 8.648-2.957 1.54-4.599 1.525-6.934.409-2.336-1.116-17.113-7.085-19.775-8.357-1.331-.636-2.03-1.172-2.03-1.679v-5.077s19.238-4.188 22.344-5.302c3.106-1.114 4.183-1.155 6.826-.186 2.644.968 18.447 3.818 21.06 4.775l-.001 5.006c0 .501-.603 1.052-1.967 1.763Z" fill="#A41E11"/>
  <path d="M234.738 308.314c-2.681 1.397-16.567 7.106-19.523 8.647-2.957 1.541-4.599 1.526-6.934.41-2.336-1.116-17.113-7.085-19.775-8.357-2.662-1.272-2.718-2.148-.103-3.172 2.615-1.024 17.311-6.79 20.417-7.904 3.106-1.114 4.184-1.154 6.827-.186s16.446 6.462 19.058 7.419c2.613.957 2.713 1.745.033 3.143Z" fill="#D82C20"/>
  <path d="M234.738 304.806c-2.681 1.397-16.567 7.106-19.523 8.648-2.957 1.541-4.599 1.526-6.934.409-2.336-1.115-17.113-7.085-19.775-8.357-1.331-.636-2.03-1.172-2.03-1.678v-5.078s19.238-4.188 22.344-5.301c3.106-1.115 4.183-1.155 6.826-.187 2.644.968 18.447 3.819 21.06 4.776l-.001 5.005c0 .501-.603 1.052-1.967 1.763Z" fill="#A41E11"/>
  <path d="M234.738 299.728c-2.681 1.397-16.567 7.106-19.523 8.647-2.957 1.541-4.599 1.526-6.934.41-2.336-1.116-17.113-7.085-19.775-8.357-2.662-1.272-2.718-2.148-.103-3.172 2.615-1.024 17.311-6.789 20.417-7.903 3.106-1.115 4.184-1.155 6.827-.186 2.643.968 16.446 6.461 19.058 7.418 2.613.957 2.713 1.746.033 3.143Z" fill="#D82C20"/>
  <path d="m218.173 294.838-4.353.452-.974 2.344-1.574-2.616-5.026-.451 3.75-1.353-1.125-2.075 3.511 1.373 3.31-1.084-.894 2.147 3.375 1.263ZM212.586 306.211l-8.123-3.368 11.64-1.787-3.517 5.155ZM201.324 300.964c3.436 0 6.221-1.08 6.221-2.411 0-1.332-2.785-2.412-6.221-2.412s-6.221 1.08-6.221 2.412c0 1.331 2.785 2.411 6.221 2.411Z" fill="#fff"/>
  <path d="m223.316 295.479 6.889 2.722-6.883 2.719-.006-5.441Z" fill="#7A0C00"/>
  <path d="m215.695 298.494 7.621-3.015.006 5.441-.747.293-6.88-2.719Z" fill="#AD2115"/>
  <circle cx="341.5" cy="309.5" r="12.5" fill="#C0008A" stroke="#fff" stroke-width="2"/>
  <defs>
    <filter id="a" x="0" y="207" width="236" height="95" filterUnits="userSpaceOnUse" color-interpolation-filters="sRGB">
      <feFlood flood-opacity="0" result="BackgroundImageFix"/>
      <feColorMatrix in="SourceAlpha" values="0 0 0 0 0 0 0 0 0 0 0 0 0 0 0 0 0 0 127 0" result="hardAlpha"/>
      <feMorphology radius="6" in="SourceAlpha" result="effect1_dropShadow"/>
      <feOffset dy="11"/>
      <feGaussianBlur stdDeviation="9.5"/>
      <feComposite in2="hardAlpha" operator="out"/>
      <feColorMatrix values="0 0 0 0 0 0 0 0 0 0 0 0 0 0 0 0 0 0 0.65 0"/>
      <feBlend in2="BackgroundImageFix" result="effect1_dropShadow"/>
      <feBlend in="SourceGraphic" in2="effect1_dropShadow" result="shape"/>
    </filter>
    <filter id="b" x="179" y="1" width="176" height="95" filterUnits="userSpaceOnUse" color-interpolation-filters="sRGB">
      <feFlood flood-opacity="0" result="BackgroundImageFix"/>
      <feColorMatrix in="SourceAlpha" values="0 0 0 0 0 0 0 0 0 0 0 0 0 0 0 0 0 0 127 0" result="hardAlpha"/>
      <feMorphology radius="6" in="SourceAlpha" result="effect1_dropShadow"/>
      <feOffset dy="11"/>
      <feGaussianBlur stdDeviation="9.5"/>
      <feComposite in2="hardAlpha" operator="out"/>
      <feColorMatrix values="0 0 0 0 0 0 0 0 0 0 0 0 0 0 0 0 0 0 0.3 0"/>
      <feBlend in2="BackgroundImageFix" result="effect1_dropShadow"/>
      <feBlend in="SourceGraphic" in2="effect1_dropShadow" result="shape"/>
    </filter>
    <filter id="c" x="444" y="72" width="236" height="95" filterUnits="userSpaceOnUse" color-interpolation-filters="sRGB">
      <feFlood flood-opacity="0" result="BackgroundImageFix"/>
      <feColorMatrix in="SourceAlpha" values="0 0 0 0 0 0 0 0 0 0 0 0 0 0 0 0 0 0 127 0" result="hardAlpha"/>
      <feMorphology radius="6" in="SourceAlpha" result="effect1_dropShadow"/>
      <feOffset dy="11"/>
      <feGaussianBlur stdDeviation="9.5"/>
      <feComposite in2="hardAlpha" operator="out"/>
      <feColorMatrix values="0 0 0 0 0.559686 0 0 0 0 0.14902 0 0 0 0 0.882353 0 0 0 0.65 0"/>
      <feBlend in2="BackgroundImageFix" result="effect1_dropShadow"/>
      <feBlend in="SourceGraphic" in2="effect1_dropShadow" result="shape"/>
    </filter>
    <filter id="d" x="154" y="273" width="200" height="95" filterUnits="userSpaceOnUse" color-interpolation-filters="sRGB">
      <feFlood flood-opacity="0" result="BackgroundImageFix"/>
      <feColorMatrix in="SourceAlpha" values="0 0 0 0 0 0 0 0 0 0 0 0 0 0 0 0 0 0 127 0" result="hardAlpha"/>
      <feMorphology radius="6" in="SourceAlpha" result="effect1_dropShadow"/>
      <feOffset dy="11"/>
      <feGaussianBlur stdDeviation="9.5"/>
      <feComposite in2="hardAlpha" operator="out"/>
      <feColorMatrix values="0 0 0 0 0.659451 0 0 0 0 0.12549 0 0 0 0 0.847059 0 0 0 0.6 0"/>
      <feBlend in2="BackgroundImageFix" result="effect1_dropShadow"/>
      <feBlend in="SourceGraphic" in2="effect1_dropShadow" result="shape"/>
    </filter>
  </defs>
</svg>
