<svg width="306" height="306" viewBox="0 0 306 306" fill="none" xmlns="http://www.w3.org/2000/svg">
<mask id="mask0" style="mask-type:alpha" maskUnits="userSpaceOnUse" x="0" y="0" width="306" height="306">
<path fill-rule="evenodd" clip-rule="evenodd" d="M153.333 0C233.141 0 298.703 61.8229 306 140.865L305.652 140.747C305.652 140.747 302.728 139.66 301.193 139.072C299.658 138.455 299.89 137.397 298.876 137.427C297.834 137.427 297.312 137.015 297.312 137.015C297.312 137.015 297.863 136.251 298.76 134.9C299.658 133.548 300.672 131.609 300.672 131.609C300.672 131.609 300.15 132.52 299.311 132.725C298.5 132.931 294.272 133.372 294.272 133.372C294.272 133.372 294.59 132.343 294.619 131.579C294.648 130.815 294.677 129.464 294.677 129.464C294.677 129.464 293.982 129.493 293.23 129.875C292.477 130.228 290.536 131.168 289.755 130.375C288.973 129.611 288.307 127.466 288.538 126.408C288.741 125.379 289.32 125.291 289.697 125.203C290.102 125.115 291.058 125.144 291.058 125.144C291.058 125.144 289.175 124.116 288.075 123.646C286.975 123.176 285.237 122.323 285.237 121.295C285.237 120.267 285.556 119.943 285.295 119.15C285.035 118.357 284.542 117.857 284.542 117.857C284.542 117.857 284.368 118.944 283.818 118.944C283.239 118.944 281.588 118.151 279.967 116.3C278.374 114.449 278.2 114.302 277.187 113.92C276.144 113.538 273.972 111.628 273.943 110.188C273.915 108.748 274.378 108.014 274.378 108.014C274.378 108.014 273.915 108.308 272.901 109.16C271.887 110.012 271.453 109.924 270.729 109.806C269.976 109.659 269.426 109.365 269.6 107.984C269.745 106.603 270.353 105.075 270.353 104.253C270.353 103.43 270.092 102.872 270.092 102.872C270.092 102.872 269.918 104.664 269.223 104.517C268.528 104.37 267.631 103.136 267.167 102.637C266.733 102.166 267.196 102.783 266.617 103.4C266.038 104.018 265.314 104.723 264.561 103.4C263.808 102.078 261.376 96.3485 261.549 94.9675C261.752 93.5865 261.521 92.7636 261.521 92.7636C261.521 92.7636 261.405 93.6451 261.115 94.4385C260.826 95.2318 260.854 96.319 259.696 96.1722C258.567 96.0547 256.887 95.2318 256.887 95.2318C256.887 95.2318 262.476 82.5383 261.636 76.2502C260.826 69.9914 258.943 61.2646 247.534 60.2949C236.124 59.3546 232.389 58.7964 226.394 61.2646C220.4 63.7033 214.608 69.0218 214.608 69.0218C214.608 69.0218 186.896 58.4437 173.256 59.0902C159.646 59.7366 129.501 61.529 111.749 68.4929C93.9981 75.4862 96.807 73.018 89.0463 78.7477C81.2855 84.4188 79.8087 85.359 79.0557 86.2405C78.3028 87.0927 73.4089 93.5276 71.5556 95.0556C69.6733 96.5542 69.2969 97.3182 67.6173 97.7001C65.9377 98.082 64.8952 98.2877 64.8084 98.8461C64.7215 99.4044 64.432 100.932 64.432 102.255C64.432 103.577 63.9687 106.809 62.9551 108.043C61.9126 109.277 58.843 113.273 58.843 113.273C58.843 113.273 59.4222 113.273 60.6963 113.45C61.9995 113.655 61.9995 113.655 61.9995 113.655C61.9995 113.655 59.1906 115.83 53.9781 120.296C48.7367 124.733 44.422 129.287 41.2655 131.667C38.0801 134.047 36.1978 135.84 33.5916 137.162C30.9854 138.484 24.9621 142.598 23.659 144.067C22.3849 145.507 21.8926 145.595 21.6319 146.095C21.3423 146.565 20.4447 148.298 20.879 149.679C21.3134 151.09 22.935 157.29 23.3115 157.466C23.6879 157.642 23.6879 157.672 23.8037 157.789C23.8906 157.907 24.6146 158.73 24.8463 158.935C25.1069 159.141 25.4254 159.347 25.5992 159.435C25.744 159.494 25.8598 159.464 25.9177 159.552C25.9757 159.641 26.0625 159.817 26.2363 159.758C26.3811 159.699 26.3811 159.376 26.468 159.259C26.526 159.141 27.105 158.7 27.7421 158.671C28.3791 158.641 28.524 158.788 28.7846 158.877C29.0452 158.965 29.1031 158.994 29.1031 158.994C29.1031 158.994 29.0741 161.11 29.1321 161.697C29.1901 162.256 29.3638 162.902 29.3928 163.284C29.4218 163.666 29.3638 165.253 29.3638 165.694C29.3638 166.105 29.3928 170.189 30.1167 171.306C30.8696 172.452 31.7095 173.392 31.8253 173.862C31.9121 174.362 33.0415 175.096 33.389 175.86C33.7654 176.624 34.4604 178.446 35.7346 178.534C37.0087 178.593 40.4837 178.387 41.2366 178.358C41.9606 178.328 42.1054 178.211 42.3659 178.152C42.6555 178.064 43.6981 178.152 43.6981 178.152C43.6981 178.152 44.1903 179.768 44.7695 180.385C45.3197 181.002 46.6808 181.384 46.6808 181.384C46.6808 181.384 46.3332 179.533 46.507 179.063C46.7097 178.593 46.478 177.858 48.1866 177.682C49.8661 177.476 64.0557 177.77 64.0557 177.77C64.0557 177.77 65.0691 178.534 65.6483 178.534C66.2564 178.534 69.4707 177.858 70.2237 179.68C70.9766 181.472 68.3993 181.561 67.7623 181.649C67.1542 181.708 65.5036 181.884 65.0112 182.06C64.548 182.236 63.6792 182.501 63.6792 182.501C63.6792 182.501 63.766 183.383 62.2313 183.882C60.6965 184.411 60.0884 185.057 59.9436 185.351C59.7988 185.645 58.8142 187.055 58.4667 187.261C58.0903 187.437 56.4396 187.996 55.8605 187.937C55.2813 187.908 53.7465 187.349 53.0226 186.115C52.3276 184.881 52.2987 184.411 52.2987 184.411C52.2987 184.411 51.1693 185.88 51.5458 187.026C51.9222 188.201 52.4434 189.23 52.762 190.288C53.0805 191.345 53.6887 193.05 53.0805 193.49C52.5014 193.902 51.5457 194.284 51.5457 194.284C51.5457 194.284 51.4877 196.252 51.5747 197.281C51.6327 198.28 51.8354 199.367 51.8933 199.837C51.9223 200.307 51.7196 201.189 51.9223 201.483C52.0961 201.777 55.6579 208.682 60.6966 210.592C65.7353 212.472 68.3705 213.618 71.7297 213.06C75.0887 212.472 80.417 210.768 81.17 210.768C81.9229 210.768 83.1101 210.592 83.4576 210.768C83.834 210.974 84.8477 211.532 84.8477 211.532C84.8477 211.532 84.7607 210.827 84.5869 210.533C84.4132 210.21 84.2974 209.857 84.5 209.563C84.6738 209.269 84.8764 208.917 86.4113 208.799C87.9171 208.682 91.1315 208.153 92.6662 208.329C94.201 208.505 94.201 209.269 94.201 209.269L93.9114 210.504C93.9114 210.504 93.9983 210.21 94.7512 210.21C95.5042 210.21 96.3439 211.15 97.1837 212.678C98.0235 214.176 98.5158 215.234 98.8633 215.528C99.2397 215.793 99.6451 215.528 100.108 215.763C100.572 215.998 100.572 216.028 100.832 216.145C101.093 216.263 101.672 216.468 101.672 216.468C101.672 216.468 101.73 217.732 101.991 218.437C102.28 219.142 102.599 219.877 102.599 219.877C102.599 219.877 102.367 218.525 102.917 218.026C103.439 217.497 104.944 216.674 105.611 217.996C106.276 219.289 106.045 219.377 106.074 219.818C106.074 220.259 106.045 220.288 106.161 220.523C106.277 220.729 106.566 221.17 106.566 221.17C106.566 221.17 106.421 220.259 106.653 220.141C106.914 220.024 107.493 220.376 107.956 220.611C108.449 220.817 109.52 220.817 109.52 220.817C109.52 220.817 109.954 222.139 110.099 222.933C110.215 223.697 110.012 223.227 110.736 223.05C111.46 222.844 111.952 222.727 111.952 222.727C111.952 222.727 112.01 223.814 111.981 225.078C111.981 226.341 112.068 228.545 111.286 229.456C110.534 230.367 109.781 230.631 109.781 230.631C109.781 230.631 110.823 230.866 111.895 230.807C112.966 230.748 114.761 230.719 115.312 231.483C115.891 232.247 115.891 233.187 115.891 233.187C115.891 233.187 115.138 233.599 114.53 233.834C113.893 234.069 113.082 234.333 113.082 234.333C113.082 234.333 113.487 234.833 113.632 234.98C113.777 235.097 114.211 235.274 114.211 235.274V236.42L113.864 236.39C113.864 236.39 114.008 237.712 114.211 238.124C114.385 238.506 114.674 238.476 114.674 238.476L116.267 238.3H117.194C117.194 238.3 116.933 239.182 116.702 239.652C116.441 240.122 115.804 241.532 115.138 241.532C114.472 241.532 113.429 241.503 113.429 241.503C113.429 241.503 114.501 242.179 115.022 242.355C115.543 242.531 115.862 242.443 116.267 242.296C116.673 242.149 117.194 241.914 117.194 241.914C117.194 241.914 117.31 242.473 117.049 242.972C116.817 243.442 116.817 243.795 116.817 243.795C116.817 243.795 116.817 244.823 116.817 245.382C116.817 245.94 116.817 246.851 116.817 246.851L117.744 246.469C117.744 246.469 118.236 247.38 118.236 248.056C118.236 248.731 118.12 250.054 118.12 250.553C118.12 251.053 117.889 252.169 117.86 253.403C117.831 254.608 118.12 255.196 118.41 256.724C118.7 258.222 119.25 261.836 118.7 262.395C118.12 262.982 116.759 263.57 116.267 264.275C115.775 264.98 115.312 265.833 115.312 265.833C115.312 265.833 116.933 264.452 118.034 264.51C119.163 264.598 121.161 264.451 121.306 265.245C121.451 266.068 121.682 267.713 120.929 268.095C120.177 268.477 116.354 268.242 116.354 268.242C116.354 268.242 116.441 269.799 117.31 270.005C118.178 270.24 118.931 270.122 119.337 271.121C119.742 272.15 119.771 272.884 118.902 273.031C118.005 273.178 116.731 273.59 116.412 273.972C116.122 274.354 115.514 275.676 115.514 275.676C115.514 275.676 116.18 274.912 116.644 275.118C117.078 275.323 117.889 275.882 118.265 276.587C118.642 277.321 118.873 277.586 118.236 278.144C117.57 278.732 115.949 279.055 115.022 279.731C114.095 280.436 114.327 281.024 114.008 281.376C113.69 281.729 114.935 280.348 115.601 280.847C116.267 281.376 116.644 281.2 115.891 282.14C115.138 283.081 114.559 283.257 114.559 283.257C114.559 283.257 114.732 283.433 115.138 283.492C115.543 283.551 116.151 283.609 116.151 283.609C116.151 283.609 115.92 284.315 115.601 284.755C115.282 285.196 114.211 286.313 114.211 286.313C114.211 286.313 114.559 286.695 114.993 286.9C115.427 287.077 116.064 287.253 116.064 287.253C116.064 287.253 115.804 287.988 115.514 288.428C115.225 288.899 114.298 289.809 114.298 289.809C114.298 289.809 114.588 289.927 114.935 290.368C115.282 290.809 115.688 291.161 116.064 291.22C116.441 291.249 117.049 291.367 117.049 291.367C117.049 291.367 116.73 292.954 116.035 293.63C115.34 294.305 114.587 295.216 114.587 295.216C114.587 295.216 114.095 295.099 113.979 295.275C113.864 295.451 113.719 296.127 113.458 296.362C113.198 296.597 111.576 298.066 111.576 298.066C111.576 298.066 110.562 299.095 110.418 299.8C110.273 300.535 110.331 301.328 110.331 301.328C110.331 301.328 111.315 299.124 112.531 299.036C113.719 298.948 113.806 299.124 114.385 299.301C114.964 299.506 115.688 300.74 115.688 300.74C115.688 300.74 114.153 301.945 113.574 302.856C112.995 303.767 112.531 304.707 112.531 304.707C112.531 304.707 112.908 304.825 113.198 305.03C113.487 305.236 113.95 305.647 113.95 305.647L113.979 306C48.3311 288.37 0 227.693 0 155.586C0 69.639 68.6307 0 153.333 0Z" fill="#C0008A"/>
<path fill-rule="evenodd" clip-rule="evenodd" d="M153.623 260.25C153.623 260.25 146.471 257.458 141.692 255.783C136.914 254.108 130.804 252.14 130.138 252.639C129.472 253.109 129.588 253.051 129.298 253.668C129.038 254.314 128.661 255.225 128.661 255.225C128.661 255.225 126.576 255.049 126.113 256.342C125.621 257.664 125.505 259.368 125.592 262.571C125.679 265.832 126.113 272.943 126.663 274.412C127.213 275.911 128.314 279.084 129.849 282.699C131.412 286.313 131.963 288.193 132.513 289.956C133.063 291.719 134.192 293.247 135.032 293.218C135.843 293.159 144.067 289.662 145.92 288.546C147.774 287.429 152.726 282.992 154.637 280.554C156.548 278.144 157.098 277.204 157.098 277.204C157.098 277.204 158.228 277.086 159.125 276.881C160.023 276.704 162.687 276.029 162.687 276.029C162.687 276.029 162.89 276.646 163.816 276.469C164.714 276.293 166.307 275.735 166.307 275.735C166.307 275.735 167.61 276.029 168.102 275.911C168.624 275.793 169.869 274.912 169.869 274.912C169.869 274.912 175.081 277.027 177.832 277.762C180.583 278.526 183.189 279.261 185.303 279.437C187.388 279.643 188.17 279.643 188.17 279.643C188.17 279.643 190.603 279.907 192.166 279.878C193.73 279.848 197.466 279.437 199.29 278.526C201.143 277.586 202.418 277.057 202.794 276.469C203.17 275.882 202.852 273.766 202.273 272.326C201.694 270.886 200.999 269.711 199.667 268.271C198.335 266.861 197.553 262.777 197.089 261.19C196.655 259.603 195.352 254.667 193.991 250.964C192.601 247.233 189.589 240.621 188.663 239.152C187.765 237.654 186.809 236.008 185.448 236.096C184.058 236.214 183.711 237.184 181.481 238.858C179.28 240.533 174.705 244.059 171.954 247.056C169.203 250.024 166.654 252.639 165.554 254.197C164.454 255.783 162.803 258.193 162.803 258.193C162.803 258.193 161.065 258.398 159.733 258.398C158.401 258.398 156.838 258.721 155.882 259.045C154.926 259.368 153.623 260.25 153.623 260.25Z" fill="#C0008A"/>
</mask>
<g mask="url(#mask0)">
<path fill-rule="evenodd" clip-rule="evenodd" d="M153.333 0C233.141 0 298.703 61.8229 306 140.865L305.652 140.747C305.652 140.747 302.728 139.66 301.193 139.072C299.658 138.455 299.89 137.397 298.876 137.427C297.834 137.427 297.312 137.015 297.312 137.015C297.312 137.015 297.863 136.251 298.76 134.9C299.658 133.548 300.672 131.609 300.672 131.609C300.672 131.609 300.15 132.52 299.311 132.725C298.5 132.931 294.272 133.372 294.272 133.372C294.272 133.372 294.59 132.343 294.619 131.579C294.648 130.815 294.677 129.464 294.677 129.464C294.677 129.464 293.982 129.493 293.23 129.875C292.477 130.228 290.536 131.168 289.755 130.375C288.973 129.611 288.307 127.466 288.538 126.408C288.741 125.379 289.32 125.291 289.697 125.203C290.102 125.115 291.058 125.144 291.058 125.144C291.058 125.144 289.175 124.116 288.075 123.646C286.975 123.176 285.237 122.323 285.237 121.295C285.237 120.267 285.556 119.943 285.295 119.15C285.035 118.357 284.542 117.857 284.542 117.857C284.542 117.857 284.368 118.944 283.818 118.944C283.239 118.944 281.588 118.151 279.967 116.3C278.374 114.449 278.2 114.302 277.187 113.92C276.144 113.538 273.972 111.628 273.943 110.188C273.915 108.748 274.378 108.014 274.378 108.014C274.378 108.014 273.915 108.308 272.901 109.16C271.887 110.012 271.453 109.924 270.729 109.806C269.976 109.659 269.426 109.365 269.6 107.984C269.745 106.603 270.353 105.075 270.353 104.253C270.353 103.43 270.092 102.872 270.092 102.872C270.092 102.872 269.918 104.664 269.223 104.517C268.528 104.37 267.631 103.136 267.167 102.637C266.733 102.166 267.196 102.783 266.617 103.4C266.038 104.018 265.314 104.723 264.561 103.4C263.808 102.078 261.376 96.3485 261.549 94.9675C261.752 93.5865 261.521 92.7636 261.521 92.7636C261.521 92.7636 261.405 93.6451 261.115 94.4385C260.826 95.2318 260.854 96.319 259.696 96.1722C258.567 96.0547 256.887 95.2318 256.887 95.2318C256.887 95.2318 262.476 82.5383 261.636 76.2502C260.826 69.9914 258.943 61.2646 247.534 60.2949C236.124 59.3546 232.389 58.7964 226.394 61.2646C220.4 63.7033 214.608 69.0218 214.608 69.0218C214.608 69.0218 186.896 58.4437 173.256 59.0902C159.646 59.7366 129.501 61.529 111.749 68.4929C93.9981 75.4862 96.807 73.018 89.0463 78.7477C81.2855 84.4188 79.8087 85.359 79.0557 86.2405C78.3028 87.0927 73.4089 93.5276 71.5556 95.0556C69.6733 96.5542 69.2969 97.3182 67.6173 97.7001C65.9377 98.082 64.8952 98.2877 64.8084 98.8461C64.7215 99.4044 64.432 100.932 64.432 102.255C64.432 103.577 63.9687 106.809 62.9551 108.043C61.9126 109.277 58.843 113.273 58.843 113.273C58.843 113.273 59.4222 113.273 60.6963 113.45C61.9995 113.655 61.9995 113.655 61.9995 113.655C61.9995 113.655 59.1906 115.83 53.9781 120.296C48.7367 124.733 44.422 129.287 41.2655 131.667C38.0801 134.047 36.1978 135.84 33.5916 137.162C30.9854 138.484 24.9621 142.598 23.659 144.067C22.3849 145.507 21.8926 145.595 21.6319 146.095C21.3423 146.565 20.4447 148.298 20.879 149.679C21.3134 151.09 22.935 157.29 23.3115 157.466C23.6879 157.642 23.6879 157.672 23.8037 157.789C23.8906 157.907 24.6146 158.73 24.8463 158.935C25.1069 159.141 25.4254 159.347 25.5992 159.435C25.744 159.494 25.8598 159.464 25.9177 159.552C25.9757 159.641 26.0625 159.817 26.2363 159.758C26.3811 159.699 26.3811 159.376 26.468 159.259C26.526 159.141 27.105 158.7 27.7421 158.671C28.3791 158.641 28.524 158.788 28.7846 158.877C29.0452 158.965 29.1031 158.994 29.1031 158.994C29.1031 158.994 29.0741 161.11 29.1321 161.697C29.1901 162.256 29.3638 162.902 29.3928 163.284C29.4218 163.666 29.3638 165.253 29.3638 165.694C29.3638 166.105 29.3928 170.189 30.1167 171.306C30.8696 172.452 31.7095 173.392 31.8253 173.862C31.9121 174.362 33.0415 175.096 33.389 175.86C33.7654 176.624 34.4604 178.446 35.7346 178.534C37.0087 178.593 40.4837 178.387 41.2366 178.358C41.9606 178.328 42.1054 178.211 42.3659 178.152C42.6555 178.064 43.6981 178.152 43.6981 178.152C43.6981 178.152 44.1903 179.768 44.7695 180.385C45.3197 181.002 46.6808 181.384 46.6808 181.384C46.6808 181.384 46.3332 179.533 46.507 179.063C46.7097 178.593 46.478 177.858 48.1866 177.682C49.8661 177.476 64.0557 177.77 64.0557 177.77C64.0557 177.77 65.0691 178.534 65.6483 178.534C66.2564 178.534 69.4707 177.858 70.2237 179.68C70.9766 181.472 68.3993 181.561 67.7623 181.649C67.1542 181.708 65.5036 181.884 65.0112 182.06C64.548 182.236 63.6792 182.501 63.6792 182.501C63.6792 182.501 63.766 183.383 62.2313 183.882C60.6965 184.411 60.0884 185.057 59.9436 185.351C59.7988 185.645 58.8142 187.055 58.4667 187.261C58.0903 187.437 56.4396 187.996 55.8605 187.937C55.2813 187.908 53.7465 187.349 53.0226 186.115C52.3276 184.881 52.2987 184.411 52.2987 184.411C52.2987 184.411 51.1693 185.88 51.5458 187.026C51.9222 188.201 52.4434 189.23 52.762 190.288C53.0805 191.345 53.6887 193.05 53.0805 193.49C52.5014 193.902 51.5457 194.284 51.5457 194.284C51.5457 194.284 51.4877 196.252 51.5747 197.281C51.6327 198.28 51.8354 199.367 51.8933 199.837C51.9223 200.307 51.7196 201.189 51.9223 201.483C52.0961 201.777 55.6579 208.682 60.6966 210.592C65.7353 212.472 68.3705 213.618 71.7297 213.06C75.0887 212.472 80.417 210.768 81.17 210.768C81.9229 210.768 83.1101 210.592 83.4576 210.768C83.834 210.974 84.8477 211.532 84.8477 211.532C84.8477 211.532 84.7607 210.827 84.5869 210.533C84.4132 210.21 84.2974 209.857 84.5 209.563C84.6738 209.269 84.8764 208.917 86.4113 208.799C87.9171 208.682 91.1315 208.153 92.6662 208.329C94.201 208.505 94.201 209.269 94.201 209.269L93.9114 210.504C93.9114 210.504 93.9983 210.21 94.7512 210.21C95.5042 210.21 96.3439 211.15 97.1837 212.678C98.0235 214.176 98.5158 215.234 98.8633 215.528C99.2397 215.793 99.6451 215.528 100.108 215.763C100.572 215.998 100.572 216.028 100.832 216.145C101.093 216.263 101.672 216.468 101.672 216.468C101.672 216.468 101.73 217.732 101.991 218.437C102.28 219.142 102.599 219.877 102.599 219.877C102.599 219.877 102.367 218.525 102.917 218.026C103.439 217.497 104.944 216.674 105.611 217.996C106.276 219.289 106.045 219.377 106.074 219.818C106.074 220.259 106.045 220.288 106.161 220.523C106.277 220.729 106.566 221.17 106.566 221.17C106.566 221.17 106.421 220.259 106.653 220.141C106.914 220.024 107.493 220.376 107.956 220.611C108.449 220.817 109.52 220.817 109.52 220.817C109.52 220.817 109.954 222.139 110.099 222.933C110.215 223.697 110.012 223.227 110.736 223.05C111.46 222.844 111.952 222.727 111.952 222.727C111.952 222.727 112.01 223.814 111.981 225.078C111.981 226.341 112.068 228.545 111.286 229.456C110.534 230.367 109.781 230.631 109.781 230.631C109.781 230.631 110.823 230.866 111.895 230.807C112.966 230.748 114.761 230.719 115.312 231.483C115.891 232.247 115.891 233.187 115.891 233.187C115.891 233.187 115.138 233.599 114.53 233.834C113.893 234.069 113.082 234.333 113.082 234.333C113.082 234.333 113.487 234.833 113.632 234.98C113.777 235.097 114.211 235.274 114.211 235.274V236.42L113.864 236.39C113.864 236.39 114.008 237.712 114.211 238.124C114.385 238.506 114.674 238.476 114.674 238.476L116.267 238.3H117.194C117.194 238.3 116.933 239.182 116.702 239.652C116.441 240.122 115.804 241.532 115.138 241.532C114.472 241.532 113.429 241.503 113.429 241.503C113.429 241.503 114.501 242.179 115.022 242.355C115.543 242.531 115.862 242.443 116.267 242.296C116.673 242.149 117.194 241.914 117.194 241.914C117.194 241.914 117.31 242.473 117.049 242.972C116.817 243.442 116.817 243.795 116.817 243.795C116.817 243.795 116.817 244.823 116.817 245.382C116.817 245.94 116.817 246.851 116.817 246.851L117.744 246.469C117.744 246.469 118.236 247.38 118.236 248.056C118.236 248.731 118.12 250.054 118.12 250.553C118.12 251.053 117.889 252.169 117.86 253.403C117.831 254.608 118.12 255.196 118.41 256.724C118.7 258.222 119.25 261.836 118.7 262.395C118.12 262.982 116.759 263.57 116.267 264.275C115.775 264.98 115.312 265.833 115.312 265.833C115.312 265.833 116.933 264.452 118.034 264.51C119.163 264.598 121.161 264.451 121.306 265.245C121.451 266.068 121.682 267.713 120.929 268.095C120.177 268.477 116.354 268.242 116.354 268.242C116.354 268.242 116.441 269.799 117.31 270.005C118.178 270.24 118.931 270.122 119.337 271.121C119.742 272.15 119.771 272.884 118.902 273.031C118.005 273.178 116.731 273.59 116.412 273.972C116.122 274.354 115.514 275.676 115.514 275.676C115.514 275.676 116.18 274.912 116.644 275.118C117.078 275.323 117.889 275.882 118.265 276.587C118.642 277.321 118.873 277.586 118.236 278.144C117.57 278.732 115.949 279.055 115.022 279.731C114.095 280.436 114.327 281.024 114.008 281.376C113.69 281.729 114.935 280.348 115.601 280.847C116.267 281.376 116.644 281.2 115.891 282.14C115.138 283.081 114.559 283.257 114.559 283.257C114.559 283.257 114.732 283.433 115.138 283.492C115.543 283.551 116.151 283.609 116.151 283.609C116.151 283.609 115.92 284.315 115.601 284.755C115.282 285.196 114.211 286.313 114.211 286.313C114.211 286.313 114.559 286.695 114.993 286.9C115.427 287.077 116.064 287.253 116.064 287.253C116.064 287.253 115.804 287.988 115.514 288.428C115.225 288.899 114.298 289.809 114.298 289.809C114.298 289.809 114.588 289.927 114.935 290.368C115.282 290.809 115.688 291.161 116.064 291.22C116.441 291.249 117.049 291.367 117.049 291.367C117.049 291.367 116.73 292.954 116.035 293.63C115.34 294.305 114.587 295.216 114.587 295.216C114.587 295.216 114.095 295.099 113.979 295.275C113.864 295.451 113.719 296.127 113.458 296.362C113.198 296.597 111.576 298.066 111.576 298.066C111.576 298.066 110.562 299.095 110.418 299.8C110.273 300.535 110.331 301.328 110.331 301.328C110.331 301.328 111.315 299.124 112.531 299.036C113.719 298.948 113.806 299.124 114.385 299.301C114.964 299.506 115.688 300.74 115.688 300.74C115.688 300.74 114.153 301.945 113.574 302.856C112.995 303.767 112.531 304.707 112.531 304.707C112.531 304.707 112.908 304.825 113.198 305.03C113.487 305.236 113.95 305.647 113.95 305.647L113.979 306C48.3311 288.37 0 227.693 0 155.586C0 69.639 68.6307 0 153.333 0Z" fill="#C0008A"/>
<path fill-rule="evenodd" clip-rule="evenodd" d="M153.623 260.25C153.623 260.25 146.471 257.458 141.692 255.783C136.914 254.108 130.804 252.14 130.138 252.639C129.472 253.109 129.588 253.051 129.298 253.668C129.038 254.314 128.661 255.225 128.661 255.225C128.661 255.225 126.576 255.049 126.113 256.342C125.621 257.664 125.505 259.368 125.592 262.571C125.679 265.832 126.113 272.943 126.663 274.412C127.213 275.911 128.314 279.084 129.849 282.699C131.412 286.313 131.963 288.193 132.513 289.956C133.063 291.719 134.192 293.247 135.032 293.218C135.843 293.159 144.067 289.662 145.92 288.546C147.774 287.429 152.726 282.992 154.637 280.554C156.548 278.144 157.098 277.204 157.098 277.204C157.098 277.204 158.228 277.086 159.125 276.881C160.023 276.704 162.687 276.029 162.687 276.029C162.687 276.029 162.89 276.646 163.816 276.469C164.714 276.293 166.307 275.735 166.307 275.735C166.307 275.735 167.61 276.029 168.102 275.911C168.624 275.793 169.869 274.912 169.869 274.912C169.869 274.912 175.081 277.027 177.832 277.762C180.583 278.526 183.189 279.261 185.303 279.437C187.388 279.643 188.17 279.643 188.17 279.643C188.17 279.643 190.603 279.907 192.166 279.878C193.73 279.848 197.466 279.437 199.29 278.526C201.143 277.586 202.418 277.057 202.794 276.469C203.17 275.882 202.852 273.766 202.273 272.326C201.694 270.886 200.999 269.711 199.667 268.271C198.335 266.861 197.553 262.777 197.089 261.19C196.655 259.603 195.352 254.667 193.991 250.964C192.601 247.233 189.589 240.621 188.663 239.152C187.765 237.654 186.809 236.008 185.448 236.096C184.058 236.214 183.711 237.184 181.481 238.858C179.28 240.533 174.705 244.059 171.954 247.056C169.203 250.024 166.654 252.639 165.554 254.197C164.454 255.783 162.803 258.193 162.803 258.193C162.803 258.193 161.065 258.398 159.733 258.398C158.401 258.398 156.838 258.721 155.882 259.045C154.926 259.368 153.623 260.25 153.623 260.25Z" fill="#C0008A"/>
<path d="M65.4851 -62L39.9055 36.5736L-25.7338 -4.66769L-25.672 -3.59961L-43.7549 27.8661C-44.2517 27.5047 -44.8228 27.3134 -45.4053 27.3133C-46.0673 27.3132 -46.7126 27.56 -47.2503 28.0189L-106.991 -47.5658L-89.6919 56.6537L-90.6266 57.1949L-89.4347 57.6699L-47.0417 161.04C-47.4163 161.322 -47.7366 161.696 -47.9818 162.135L-139.26 125.409L-143 171.14L-48.4324 165.024C-48.2968 165.751 -47.9824 166.414 -47.5293 166.928L-99.44 256.005L-100.838 256.8L-27.4891 278.892C-27.4915 278.95 -27.4927 279.008 -27.4928 279.066C-27.4927 279.559 -27.4109 280.047 -27.252 280.503C-27.0931 280.959 -26.8602 281.373 -26.5666 281.722C-26.273 282.071 -25.9244 282.347 -25.5408 282.536C-25.1572 282.725 -24.7461 282.822 -24.3309 282.822C-23.8249 282.822 -23.3263 282.677 -22.877 282.401C-22.4277 282.124 -22.0408 281.723 -21.749 281.232L41.1204 314.655L60.7002 251.27C60.8116 251.284 60.9236 251.291 61.0356 251.291C61.4641 251.291 61.888 251.188 62.2817 250.987C62.6754 250.786 63.0307 250.492 63.3259 250.123L124.896 291.618L124.934 292.175L191.519 265.13C191.804 265.666 192.199 266.106 192.666 266.412C193.133 266.718 193.657 266.878 194.19 266.878C194.845 266.878 195.484 266.636 196.018 266.186L241.443 314.756L282.012 238.645C282.344 238.781 282.693 238.851 283.044 238.851C283.143 238.851 283.243 238.845 283.342 238.834L304.703 329L328.683 280.368C328.93 280.44 329.182 280.476 329.436 280.476C330.243 280.476 331.019 280.109 331.606 279.451C332.193 278.793 332.546 277.893 332.592 276.936L382.095 254.353L342.517 171.233C342.953 170.686 343.24 169.997 343.341 169.254L429.849 163.711L430 162.27L353.66 134.07C353.688 133.866 353.703 133.659 353.703 133.453C353.703 132.487 353.389 131.558 352.828 130.86L387.37 58.4648L388.844 58.6724L329.178 -7.49282L306.466 42.6411C306.263 42.5761 306.055 42.5353 305.845 42.5194L283.587 -46.9064L242.619 27.9937C242.236 27.8056 241.826 27.7089 241.411 27.709C240.766 27.7091 240.137 27.9437 239.607 28.3814L192.203 -20.7854L191.986 -20.113L128.494 7.38816C128.224 6.78986 127.822 6.28981 127.331 5.94121C126.841 5.5926 126.28 5.40846 125.709 5.4084C125.072 5.40841 124.451 5.63674 123.925 6.06351L65.4851 -62ZM66.0716 -59.2505L123.057 7.12006C122.725 7.72882 122.548 8.43897 122.548 9.16468C122.548 9.32323 122.556 9.48163 122.573 9.6389L41.2071 36.5693L66.0716 -59.2505ZM283.16 -43.4168L304.6 42.7211C304.185 42.8932 303.805 43.1663 303.483 43.5229C303.162 43.8796 302.907 44.3119 302.734 44.7924L244.57 31.3038C244.536 30.3671 244.208 29.4795 243.651 28.8153L283.16 -43.4168ZM-104.934 -42.8092L-48.0982 29.1021C-48.4047 29.694 -48.567 30.3753 -48.5671 31.0703C-48.5669 31.616 -48.4668 32.1551 -48.2735 32.6501L-88.5377 55.9842L-104.934 -42.8092ZM191.396 -18.2867L169.025 50.9796C168.874 50.9533 168.722 50.9401 168.569 50.94C167.856 50.94 167.164 51.2262 166.606 51.7522L128.424 11.0882C128.716 10.5065 128.87 9.84189 128.87 9.16468C128.87 9.04388 128.865 8.92314 128.855 8.80289L191.396 -18.2867ZM192.726 -18.2846L238.746 29.4473C238.422 30.0504 238.25 30.7508 238.25 31.466C238.25 31.5208 238.251 31.5756 238.253 31.6303L171.38 52.9745C171.11 52.3539 170.7 51.8347 170.196 51.4755L192.726 -18.2846ZM329.508 -5.10804L385.224 56.676L308.789 45.9225C308.749 45.4101 308.621 44.913 308.413 44.4618C308.205 44.0107 307.921 43.6152 307.578 43.2999L329.508 -5.10804ZM-24.3419 -2.1229L39.0606 37.7123L-17.5567 82.0072C-17.7769 81.5659 -18.0709 81.183 -18.4204 80.8819C-18.77 80.5808 -19.1677 80.368 -19.5891 80.2566L-24.3419 -2.1229ZM-25.5349 -1.22131L-20.8355 80.227C-20.9375 80.2487 -21.0385 80.2764 -21.1382 80.3099L-43.3922 33.9661C-43.0331 33.6137 -42.744 33.1714 -42.5456 32.6708C-42.3471 32.1702 -42.2441 31.6237 -42.2441 31.0703C-42.244 30.2855 -42.4508 29.5203 -42.8354 28.8823L-25.5349 -1.22131ZM122.97 11.0399C123.234 11.5844 123.608 12.0416 124.059 12.3696L108.088 56.5067C107.883 56.4577 107.674 56.4331 107.465 56.4332C106.873 56.4332 106.292 56.631 105.79 57.0041C105.287 57.3772 104.883 57.9106 104.624 58.5434L42.5748 37.6489L122.97 11.0399ZM127.591 12.183L165.803 52.8787C165.614 53.2844 165.49 53.7281 165.437 54.1875L110.52 59.2237C110.324 58.347 109.867 57.5844 109.234 57.0767L125.227 12.8777C125.387 12.9069 125.548 12.9216 125.709 12.9217C126.387 12.9215 127.046 12.6626 127.591 12.183ZM244.378 32.7632L302.48 46.2367C302.48 46.247 302.48 46.2574 302.48 46.2677C302.48 46.8289 302.586 47.3829 302.789 47.8892C302.993 48.3954 303.29 48.8409 303.658 49.193L280.047 101.657C279.749 101.55 279.44 101.495 279.129 101.495C278.769 101.495 278.411 101.568 278.072 101.711L243.656 34.1109C243.975 33.7285 244.222 33.2688 244.378 32.7632ZM238.55 33.0631C238.761 33.5963 239.074 34.0631 239.465 34.4259L207.876 105.992C207.597 105.899 207.309 105.851 207.019 105.851C206.426 105.852 205.845 106.05 205.342 106.424L171.031 57.0515C171.484 56.3842 171.73 55.5531 171.731 54.6963C171.731 54.5957 171.727 54.4952 171.72 54.395L238.55 33.0631ZM-47.5245 33.858C-46.9434 34.4815 -46.1882 34.8267 -45.4053 34.8266C-45.0941 34.8265 -44.7847 34.7719 -44.487 34.6644L-22.2445 80.9845C-22.6645 81.3818 -22.9924 81.8997 -23.1973 82.4893L-87.355 56.9412L-47.5245 33.858ZM242.624 34.9347L277.005 102.469C276.477 103.037 276.127 103.801 276.01 104.636L210.012 108.396C209.815 107.712 209.458 107.111 208.982 106.663L240.576 35.0882C240.848 35.1771 241.129 35.2221 241.411 35.2223C241.827 35.2222 242.24 35.1244 242.624 34.9347ZM41.6068 38.8568L104.309 59.9711C104.306 60.0438 104.304 60.1166 104.304 60.1894C104.304 60.7399 104.406 61.2836 104.602 61.7822C104.799 62.2807 105.085 62.7218 105.441 63.0744L81.8146 115.771C81.4851 115.637 81.1391 115.568 80.7908 115.568C80.505 115.568 80.2206 115.614 79.9453 115.705L41.6068 38.8568ZM39.2171 39.3562L19.9533 118.849C19.8263 118.831 19.6985 118.822 19.5705 118.822C18.8887 118.822 18.2251 119.084 17.6788 119.569L-17.5464 85.8196C-17.2634 85.2443 -17.1144 84.5899 -17.1145 83.9235C-17.1145 83.7645 -17.123 83.6056 -17.14 83.4478L39.2171 39.3562ZM40.4775 39.4888L78.8347 116.374C78.2299 116.94 77.8198 117.748 77.6811 118.648L22.6044 121.519C22.3732 120.585 21.8456 119.794 21.1329 119.313L40.4775 39.4888ZM308.658 47.3905L386.033 58.2767L351.806 130.01C351.407 129.803 350.977 129.697 350.542 129.697C350.18 129.697 349.82 129.77 349.48 129.915L307.834 48.9732C308.216 48.5362 308.499 47.9919 308.658 47.3905ZM306.787 49.7689L348.414 130.674C348.127 130.985 347.89 131.356 347.716 131.769L282.285 105.454C282.288 105.386 282.29 105.319 282.29 105.252C282.29 104.698 282.187 104.152 281.988 103.651C281.79 103.15 281.501 102.708 281.141 102.355L304.759 49.8748C305.046 49.974 305.343 50.0244 305.641 50.0247C306.033 50.0246 306.422 49.9378 306.787 49.7689H306.787ZM165.514 55.6613C165.636 56.2081 165.861 56.7151 166.171 57.1442C166.482 57.5734 166.87 57.9137 167.306 58.1398L152.359 143.747C151.95 143.75 151.545 143.847 151.168 144.033L109.556 63.0074C110.125 62.4105 110.495 61.5901 110.597 60.6961L165.514 55.6613ZM170.078 57.9978L204.438 107.44C204.06 108.074 203.858 108.831 203.858 109.608C203.858 110.009 203.912 110.408 204.018 110.789L154.906 145.247C154.564 144.706 154.106 144.285 153.579 144.028L168.52 58.4518C168.537 58.4522 168.553 58.4525 168.569 58.4526C169.096 58.4528 169.615 58.2965 170.078 57.9978V57.9978ZM-87.7832 58.3271L-23.4369 83.9501C-23.4324 84.7189 -23.2294 85.4676 -22.8554 86.095C-22.4814 86.7224 -21.9545 87.1983 -21.3456 87.4585L-44.6495 160.547C-44.8782 160.485 -45.112 160.454 -45.3464 160.454C-45.5249 160.454 -45.7031 160.472 -45.879 160.508L-87.7832 58.3271ZM108.48 63.7475L150.135 144.856C149.865 145.179 149.647 145.557 149.491 145.973L83.9423 119.629C83.9492 119.528 83.9526 119.426 83.9526 119.324C83.9524 118.793 83.8575 118.268 83.6741 117.784C83.4908 117.3 83.2231 116.867 82.8887 116.515L106.532 63.7785C106.834 63.8897 107.149 63.9463 107.465 63.9464C107.81 63.9465 108.153 63.8793 108.48 63.7475ZM-18.3731 86.9238L16.8485 120.668C16.561 121.247 16.4094 121.906 16.4093 122.578C16.4093 122.919 16.4483 123.258 16.5252 123.586L-42.91 161.817C-43.0859 161.564 -43.2888 161.34 -43.5135 161.151L-20.0859 87.6733C-19.4653 87.629 -18.8696 87.3683 -18.3731 86.9238ZM276.051 106.111C276.182 106.775 276.463 107.384 276.864 107.873L249.661 158.072C249.322 157.929 248.965 157.856 248.605 157.856C248.037 157.857 247.48 158.038 246.991 158.383L209.664 111.666C209.961 111.127 210.136 110.507 210.173 109.865L276.051 106.111ZM282.239 106.994L347.387 133.195C347.382 133.281 347.38 133.367 347.38 133.453C347.38 134.164 347.55 134.861 347.87 135.462C348.191 136.063 348.648 136.544 349.189 136.848L341.105 165.044C340.818 164.945 340.521 164.894 340.222 164.894C339.633 164.894 339.056 165.09 338.556 165.458L282.239 106.994ZM281.301 107.98L337.645 166.474C337.428 166.836 337.267 167.24 337.169 167.668L251.725 161.002C251.609 160.164 251.257 159.398 250.728 158.829L277.889 108.708C278.281 108.906 278.702 109.008 279.128 109.008C279.936 109.008 280.714 108.641 281.301 107.98ZM204.633 112.071C205.118 112.735 205.785 113.176 206.516 113.316L210.754 203.203C210.281 203.328 209.839 203.58 209.461 203.941L155.025 149.558C155.361 148.947 155.54 148.233 155.54 147.503C155.54 147.193 155.508 146.885 155.444 146.585L204.633 112.071ZM208.792 112.718L246.069 159.371C245.663 160.019 245.444 160.805 245.444 161.613C245.444 162.274 245.591 162.924 245.87 163.496L213.156 203.713C212.803 203.443 212.409 203.258 211.996 203.171L207.757 113.26C208.127 113.155 208.478 112.971 208.792 112.718ZM77.7023 120.124C77.8529 120.945 78.2304 121.681 78.7747 122.217L51.1875 178.202C50.8489 178.06 50.4924 177.988 50.1333 177.988C49.7593 177.988 49.3882 178.067 49.0374 178.221L21.8238 125.213C22.3217 124.612 22.6349 123.829 22.713 122.991L77.7023 120.124ZM83.599 121.05L149.218 147.421C149.218 147.449 149.217 147.476 149.217 147.503C149.217 148.034 149.312 148.559 149.496 149.044C149.679 149.528 149.947 149.961 150.282 150.314L120.91 205.716C120.595 205.595 120.267 205.533 119.936 205.533C119.629 205.534 119.323 205.587 119.029 205.692L82.6334 122.378C83.039 122.032 83.3699 121.577 83.599 121.05ZM79.8701 122.918C80.1685 123.026 80.4787 123.081 80.7908 123.081C81.0294 123.081 81.2672 123.049 81.4998 122.986L117.931 206.385C117.65 206.659 117.411 206.989 117.225 207.359L53.2758 182.158C53.2886 182.021 53.2951 181.883 53.2952 181.745C53.2952 181.22 53.2026 180.7 53.0233 180.22C52.844 179.741 52.5821 179.311 52.2544 178.958L79.8701 122.918ZM17.088 124.903C17.3343 125.275 17.6374 125.588 17.9814 125.826L-9.64819 202.258C-9.91579 202.172 -10.1917 202.129 -10.4688 202.129C-11.1079 202.129 -11.732 202.36 -12.2587 202.79L-42.5952 166.06C-42.3266 165.496 -42.1853 164.859 -42.1852 164.211C-42.1852 163.84 -42.2314 163.471 -42.3223 163.117L17.088 124.903ZM20.7939 126.042L47.9796 178.995C47.6618 179.347 47.4083 179.772 47.235 180.245C47.0616 180.718 46.9722 181.229 46.9721 181.745C46.9724 181.956 46.9876 182.167 47.0176 182.375L-7.623 204.249C-7.8358 203.727 -8.14763 203.27 -8.534 202.914L19.1605 126.303C19.2965 126.324 19.4334 126.334 19.5705 126.334C19.9906 126.334 20.4065 126.235 20.7939 126.042ZM-138.176 127.404L-48.4512 163.504C-48.4535 163.518 -48.4558 163.533 -48.4579 163.548L-141.624 169.572L-138.176 127.404ZM353.218 135.452L426.328 162.459L343.297 167.78C343.136 166.977 342.757 166.259 342.218 165.737L350.398 137.205C350.446 137.208 350.494 137.21 350.542 137.21C351.076 137.21 351.602 137.048 352.07 136.741C352.538 136.433 352.933 135.99 353.218 135.452ZM154.152 150.613L208.665 205.073C208.506 205.419 208.395 205.793 208.334 206.181L122.94 208.12C122.76 207.468 122.433 206.887 121.995 206.439L151.356 151.057C151.685 151.191 152.031 151.259 152.378 151.259C153.01 151.259 153.628 151.034 154.152 150.613ZM251.682 162.477L337.088 169.14C337.146 169.668 337.298 170.176 337.534 170.629L285.341 232.513C285.045 232.142 284.689 231.846 284.294 231.644C283.899 231.442 283.474 231.338 283.044 231.338C282.721 231.338 282.4 231.397 282.092 231.512L250.669 164.459C251.174 163.942 251.529 163.248 251.682 162.477ZM246.695 164.605C247.244 165.101 247.915 165.369 248.605 165.37C248.938 165.369 249.269 165.307 249.586 165.184L281.004 232.224C280.705 232.524 280.456 232.887 280.269 233.295L214.591 207.189C214.599 207.083 214.603 206.976 214.603 206.869C214.603 206.109 214.409 205.366 214.046 204.74L246.695 164.605ZM-43.4104 167.179L-13.1248 203.848C-13.4545 204.456 -13.6299 205.163 -13.63 205.885C-13.63 206.289 -13.5753 206.689 -13.4681 207.072L-97.1795 254.718L-46.4788 167.718C-46.1174 167.882 -45.7336 167.967 -45.3464 167.967C-44.6454 167.967 -43.9644 167.69 -43.4104 167.179ZM338.383 171.706C338.723 171.995 339.107 172.2 339.514 172.311L329.481 272.964C329.466 272.963 329.451 272.963 329.436 272.963C328.626 272.963 327.847 273.332 327.259 273.995L286.103 236.043C286.171 235.733 286.205 235.414 286.205 235.094C286.205 234.654 286.14 234.216 286.012 233.802L338.383 171.706ZM341.497 172.087L380.304 253.589L332.408 275.439C332.262 274.96 332.035 274.521 331.742 274.149C331.448 273.777 331.094 273.48 330.7 273.276L340.761 172.352C341.015 172.299 341.262 172.211 341.497 172.087ZM52.8991 183.564L116.807 208.75C116.786 208.929 116.775 209.109 116.775 209.29C116.775 209.638 116.815 209.984 116.895 210.319L63.5248 245.219C63.234 244.778 62.8639 244.419 62.4415 244.17C62.0191 243.921 61.5551 243.787 61.0835 243.779L51.3731 185.2C52.0209 184.872 52.558 184.296 52.8991 183.564ZM47.4628 183.754C47.7479 184.289 48.1423 184.73 48.6092 185.035C49.0761 185.341 49.6004 185.501 50.1333 185.501C50.141 185.501 50.1487 185.501 50.1564 185.501L59.8626 244.046C59.2847 244.321 58.7878 244.792 58.4342 245.4L-7.45197 207.008C-7.35602 206.645 -7.30714 206.266 -7.30701 205.885C-7.30708 205.818 -7.3087 205.75 -7.31184 205.683L47.4628 183.754ZM208.351 207.658C208.443 208.169 208.624 208.652 208.883 209.075C209.141 209.498 209.471 209.853 209.851 210.116L194.726 259.419C194.549 259.383 194.37 259.365 194.19 259.365C193.741 259.365 193.297 259.479 192.888 259.699C192.479 259.918 192.114 260.24 191.817 260.64L122.992 210.255C123.04 210.038 123.072 209.816 123.087 209.592L208.351 207.658ZM-8.04939 208.303L57.9424 246.758C57.8969 247.013 57.8739 247.273 57.8738 247.534C57.8739 247.711 57.8845 247.887 57.9053 248.061L-21.5149 277.36C-21.8211 276.646 -22.3117 276.066 -22.9147 275.707L-10.3997 209.641C-9.95042 209.629 -9.50842 209.504 -9.10315 209.273C-8.69788 209.042 -8.33864 208.712 -8.04939 208.303ZM-12.8494 208.357C-12.5161 208.81 -12.0962 209.161 -11.6248 209.381L-24.1144 275.318C-24.1865 275.312 -24.2587 275.309 -24.3309 275.309C-24.93 275.309 -25.5166 275.511 -26.0226 275.892C-26.5286 276.273 -26.933 276.817 -27.1889 277.461L-97.2086 256.372L-12.8494 208.357ZM214.244 208.608L279.899 234.704C279.888 234.834 279.882 234.964 279.882 235.094C279.882 235.214 279.887 235.335 279.897 235.454L197.077 261.589C196.823 260.916 196.409 260.346 195.885 259.951L211.027 210.593C211.165 210.615 211.303 210.626 211.442 210.626C212.019 210.626 212.586 210.438 213.08 210.082C213.574 209.726 213.976 209.216 214.244 208.608L214.244 208.608ZM122.439 211.585L191.195 261.918C191.085 262.306 191.029 262.712 191.029 263.122C191.029 263.333 191.044 263.543 191.073 263.752L126.045 290.164L120.857 212.883C121.485 212.656 122.038 212.202 122.439 211.585ZM117.464 211.632C117.727 212.024 118.053 212.349 118.424 212.589C118.794 212.829 119.201 212.978 119.62 213.028L124.777 289.841L63.9888 248.873C64.1262 248.446 64.1967 247.992 64.1968 247.534C64.1967 247.198 64.1586 246.863 64.0834 246.538L117.464 211.632ZM280.256 236.867C280.431 237.256 280.663 237.605 280.94 237.898L241.181 312.49L196.871 265.111C197.185 264.515 197.351 263.825 197.352 263.122C197.352 263.091 197.351 263.061 197.351 263.03L280.256 236.867ZM285.543 237.396L326.544 275.203C326.366 275.68 326.275 276.197 326.275 276.719C326.274 277.306 326.39 277.885 326.612 278.409C326.835 278.934 327.157 279.389 327.554 279.738L305.107 325.26L284.532 238.408C284.925 238.159 285.27 237.814 285.543 237.396ZM58.3184 249.454C58.6065 250.03 59.019 250.504 59.5133 250.827L40.4126 312.662L-21.2456 279.884C-21.1952 279.615 -21.1697 279.341 -21.1697 279.066C-21.1697 278.971 -21.1728 278.876 -21.1788 278.781L58.3184 249.454Z" fill="url(#paint0_linear)"/>
</g>
<defs>
<linearGradient id="paint0_linear" x1="64" y1="10.5" x2="270" y2="306.5" gradientUnits="userSpaceOnUse">
<stop stop-color="#E900A8"/>
<stop offset="1" stop-color="#C0008A" stop-opacity="0.46"/>
</linearGradient>
</defs>
</svg>
