<svg width="116" height="116" viewBox="0 0 116 116" fill="none" xmlns="http://www.w3.org/2000/svg">
<path d="M11.3281 1.5H104.672C110.1 1.5 114.5 5.9002 114.5 11.3281V104.672C114.5 110.1 110.1 114.5 104.672 114.5H11.3281C5.9002 114.5 1.5 110.1 1.5 104.672V11.3281C1.5 5.9002 5.9002 1.5 11.3281 1.5Z" stroke="#3178C6" stroke-width="3"/>
<path fill-rule="evenodd" clip-rule="evenodd" d="M72.2134 92.7046V104.141C74.063 105.094 76.2505 105.809 78.7759 106.285C81.3014 106.762 83.963 107 86.7611 107C89.4882 107 92.0786 106.738 94.533 106.214C96.9873 105.69 99.1393 104.826 100.989 103.623C102.838 102.42 104.303 100.847 105.382 98.9052C106.46 96.9634 107 94.563 107 91.704C107 89.6311 106.692 87.8145 106.075 86.2539C105.459 84.6934 104.57 83.3056 103.408 82.0905C102.246 80.8753 100.853 79.7852 99.2282 78.8202C97.6039 77.8553 95.772 76.944 93.7327 76.0864C92.2389 75.4668 90.8991 74.8653 89.7134 74.2816C88.5277 73.6977 87.52 73.1022 86.69 72.4947C85.86 71.887 85.2198 71.2437 84.7693 70.5648C84.3189 69.8856 84.0934 69.1173 84.0934 68.2595C84.0934 67.4734 84.295 66.7645 84.6982 66.1331C85.1014 65.5017 85.6705 64.9598 86.4055 64.507C87.1407 64.0545 88.0416 63.7029 89.1086 63.4527C90.1759 63.2026 91.3614 63.0776 92.6657 63.0776C93.6141 63.0776 94.6159 63.1491 95.6711 63.2919C96.7264 63.4349 97.7875 63.6554 98.8548 63.953C99.9218 64.2509 100.959 64.6263 101.967 65.0788C102.975 65.5316 103.905 66.0557 104.759 66.6515V55.9656C103.028 55.2985 101.137 54.8041 99.0859 54.4825C97.0348 54.1608 94.6811 54 92.0255 54C89.322 54 86.7611 54.292 84.3425 54.8756C81.9239 55.4593 79.7957 56.3706 77.9577 57.6095C76.12 58.8486 74.6677 60.4269 73.6007 62.345C72.5336 64.2628 72 66.556 72 69.2245C72 72.6316 72.9782 75.5383 74.9345 77.9448C76.8907 80.3511 79.8607 82.3881 83.8445 84.056C85.4095 84.6993 86.868 85.3305 88.2195 85.9501C89.5711 86.5696 90.7391 87.213 91.723 87.88C92.707 88.5471 93.4836 89.2738 94.053 90.0601C94.622 90.8462 94.9066 91.7397 94.9066 92.7405C94.9066 93.4791 94.7286 94.1639 94.373 94.7954C94.0173 95.4268 93.4777 95.9746 92.7545 96.4393C92.0314 96.904 91.1302 97.2672 90.0514 97.5292C88.9723 97.7915 87.7098 97.9224 86.2632 97.9224C83.797 97.9224 81.3548 97.4876 78.9359 96.6179C76.5173 95.7485 74.2764 94.444 72.2134 92.7046ZM53.0864 64.5274H67.6818V55.1422H27V64.5274H41.5241V106.315H53.0864V64.5274Z" fill="#3178C6"/>
</svg>
